<svg xmlns="http://www.w3.org/2000/svg" xmlns:xlink="http://www.w3.org/1999/xlink" width="0" height="0" style="position:absolute">
	
		<symbol id="icon-arrow" viewBox="0 0 45 8">
			<path d="M44.354 4.354a.5.5 0 0 0 0-.708L41.172.464a.5.5 0 1 0-.707.708L43.293 4l-2.828 2.828a.5.5 0 1 0 .707.708l3.182-3.182zM0 4.5h44v-1H0v1z"></path>
		</symbol>
	
		<symbol id="icon-big-lens" viewBox="0 0 47 47">
			<path d="M47 43.282L33.124 29.407c2.304-3.074 3.686-6.875 3.686-11.002C36.81 8.255 28.554 0 18.405 0 8.255 0 0 8.256 0 18.405 0 28.554 8.256 36.81 18.405 36.81c4.127 0 7.928-1.382 11.002-3.686L43.282 47 47 43.282zM1.753 18.405c0-9.182 7.47-16.652 16.652-16.652 9.182 0 16.652 7.47 16.652 16.652 0 9.182-7.47 16.652-16.652 16.652-9.182 0-16.652-7.47-16.652-16.652zm29.419 13.228c.156-.151.31-.304.46-.46.128-.133.266-.254.39-.39l12.5 12.5-1.24 1.24-12.5-12.501c.137-.124.257-.262.39-.39z"></path>
		</symbol>
	
		<symbol id="icon-bitcoin" viewBox="0 0 13 18">
			<path d="M12.488 9.438c-.418-.54-1.049-.911-1.892-1.113 1.074-.548 1.546-1.478 1.416-2.79a2.757 2.757 0 0 0-.395-1.237c-.22-.35-.517-.63-.892-.844a4.91 4.91 0 0 0-1.221-.486 9.64 9.64 0 0 0-1.514-.243V0H6.325v2.649c-.288 0-.728.007-1.319.022V0H3.341v2.725c-.238.007-.588.01-1.049.01L0 2.726v1.773h1.2c.548 0 .869.245.962.735v3.103c.072 0 .13.004.173.011h-.173v4.346c-.057.368-.266.552-.627.552h-1.2L0 15.223h2.162c.137 0 .336.002.595.005.26.004.454.006.584.006v2.757h1.665v-2.725c.303.008.743.011 1.32.011v2.714H7.99v-2.757a12.961 12.961 0 0 0 1.573-.162 6.4 6.4 0 0 0 1.314-.373c.418-.17.767-.38 1.048-.633.282-.252.514-.573.698-.962.184-.39.3-.84.351-1.352.094-1.002-.068-1.773-.486-2.314zm-7.45-4.822A79.57 79.57 0 0 0 6.05 4.6c.155-.003.364.006.628.027.263.022.484.05.664.087.18.036.379.095.595.178.216.083.39.184.519.303.13.119.24.27.33.454.09.184.135.394.135.632 0 .202-.033.386-.097.552a1.04 1.04 0 0 1-.292.416c-.13.112-.263.21-.4.292-.137.083-.312.15-.525.2-.212.05-.398.09-.556.119a4.558 4.558 0 0 1-.595.06c-.238.01-.418.018-.54.021-.123.004-.29.004-.503 0a41.599 41.599 0 0 0-.374-.005v-3.32zm4.547 7.363c-.069.166-.157.31-.265.433-.108.122-.25.23-.427.324a3.66 3.66 0 0 1-.514.227 4.133 4.133 0 0 1-.6.152 7.9 7.9 0 0 1-1.249.135 14.198 14.198 0 0 1-1.092.01l-.4-.005V9.601c.058 0 .23-.004.514-.011.285-.007.517-.01.697-.01.18 0 .43.01.746.032.317.021.584.053.8.097.217.043.453.11.709.2.255.09.463.2.621.33.159.13.292.295.4.497.109.202.163.432.163.692 0 .202-.034.385-.103.551z"></path>
		</symbol>
	
		<symbol id="icon-cab" viewBox="0 0 20 20">
			<mask id="a" maskUnits="userSpaceOnUse" x="0" y="0" width="20" height="20"><path d="M0 0h20v20H0z"></path><path d="M19 10c0-4.962-4.038-9-9-9s-9 4.038-9 9a8.977 8.977 0 0 0 2.921 6.63l-.008.007.292.247c.019.016.04.029.058.044.155.129.316.251.48.37l.16.113c.174.12.354.235.537.343l.12.07c.201.114.406.221.616.32l.046.021a8.915 8.915 0 0 0 2.177.689l.06.01c.237.042.477.075.72.096l.088.007c.241.02.486.033.733.033.245 0 .487-.013.727-.032l.091-.007c.241-.022.479-.054.713-.094l.061-.011a8.915 8.915 0 0 0 2.146-.673l.075-.034a9.034 9.034 0 0 0 1.254-.716c.06-.041.12-.085.18-.128.143-.103.285-.21.422-.322.03-.024.063-.046.093-.07l.3-.25-.01-.008A8.977 8.977 0 0 0 19 10zM1.655 10c0-4.602 3.743-8.345 8.345-8.345S18.346 5.398 18.346 10c0 2.48-1.089 4.71-2.812 6.239a2.454 2.454 0 0 0-.292-.176l-2.77-1.385a.725.725 0 0 1-.404-.653v-.967a6.67 6.67 0 0 0 1.058-1.944c.415-.197.683-.61.683-1.077v-1.16a1.19 1.19 0 0 0-.29-.775V6.574c.016-.17.076-1.128-.617-1.919-.603-.688-1.58-1.037-2.902-1.037-1.323 0-2.299.349-2.902 1.037-.693.79-.633 1.75-.616 1.92V8.1c-.186.217-.29.492-.29.776v1.16c0 .36.161.696.438.923a6.15 6.15 0 0 0 1.012 2.091v.947a.73.73 0 0 1-.38.641L4.674 16.05a2.373 2.373 0 0 0-.246.155A8.325 8.325 0 0 1 1.655 10zm13.24 6.752a8.452 8.452 0 0 1-.348.24c-.055.036-.109.072-.164.106a8.174 8.174 0 0 1-.472.271c-.035.02-.071.037-.107.055-.368.189-.75.351-1.141.483l-.042.014a8.389 8.389 0 0 1-.623.181h-.002a8.362 8.362 0 0 1-.643.132c-.006 0-.011.002-.017.003a8.346 8.346 0 0 1-.614.075l-.11.008a8.16 8.16 0 0 1-.612.026c-.207 0-.414-.01-.62-.026l-.107-.008a8.44 8.44 0 0 1-.618-.077l-.028-.004a8.31 8.31 0 0 1-1.273-.318l-.039-.013a8.467 8.467 0 0 1-.609-.234c-.001 0-.003 0-.004-.002a8.51 8.51 0 0 1-.558-.267l-.072-.037A8.446 8.446 0 0 1 5 16.677l-.044-.034.031-.018 2.588-1.411c.445-.243.722-.709.722-1.216V12.82l-.076-.091a5.464 5.464 0 0 1-.982-2.035l-.03-.13-.111-.072a.542.542 0 0 1-.252-.455v-1.16c0-.153.065-.294.182-.4l.108-.098V6.556l-.003-.043c0-.008-.097-.795.457-1.427.474-.54 1.285-.813 2.41-.813 1.121 0 1.93.271 2.404.807.554.625.463 1.427.463 1.434l-.003 1.865.108.098a.535.535 0 0 1 .182.4v1.16a.547.547 0 0 1-.387.516l-.162.05-.053.162a6.055 6.055 0 0 1-.816 1.647c-.086.12-.17.228-.241.31l-.081.093v1.21c0 .528.293 1.003.765 1.238l2.77 1.385.053.028-.106.076z"></path></mask><path d="M19 10c0-4.962-4.038-9-9-9s-9 4.038-9 9a8.977 8.977 0 0 0 2.921 6.63l-.008.007.292.247c.019.016.04.029.058.044.155.129.316.251.48.37l.16.113c.174.12.354.235.537.343l.12.07c.201.114.406.221.616.32l.046.021a8.915 8.915 0 0 0 2.177.689l.06.01c.237.042.477.075.72.096l.088.007c.241.02.486.033.733.033.245 0 .487-.013.727-.032l.091-.007c.241-.022.479-.054.713-.094l.061-.011a8.915 8.915 0 0 0 2.146-.673l.075-.034a9.034 9.034 0 0 0 1.254-.716c.06-.041.12-.085.18-.128.143-.103.285-.21.422-.322.03-.024.063-.046.093-.07l.3-.25-.01-.008A8.977 8.977 0 0 0 19 10zM1.655 10c0-4.602 3.743-8.345 8.345-8.345S18.346 5.398 18.346 10c0 2.48-1.089 4.71-2.812 6.239a2.454 2.454 0 0 0-.292-.176l-2.77-1.385a.725.725 0 0 1-.404-.653v-.967a6.67 6.67 0 0 0 1.058-1.944c.415-.197.683-.61.683-1.077v-1.16a1.19 1.19 0 0 0-.29-.775V6.574c.016-.17.076-1.128-.617-1.919-.603-.688-1.58-1.037-2.902-1.037-1.323 0-2.299.349-2.902 1.037-.693.79-.633 1.75-.616 1.92V8.1c-.186.217-.29.492-.29.776v1.16c0 .36.161.696.438.923a6.15 6.15 0 0 0 1.012 2.091v.947a.73.73 0 0 1-.38.641L4.674 16.05a2.373 2.373 0 0 0-.246.155A8.325 8.325 0 0 1 1.655 10zm13.24 6.752a8.452 8.452 0 0 1-.348.24c-.055.036-.109.072-.164.106a8.174 8.174 0 0 1-.472.271c-.035.02-.071.037-.107.055-.368.189-.75.351-1.141.483l-.042.014a8.389 8.389 0 0 1-.623.181h-.002a8.362 8.362 0 0 1-.643.132c-.006 0-.011.002-.017.003a8.346 8.346 0 0 1-.614.075l-.11.008a8.16 8.16 0 0 1-.612.026c-.207 0-.414-.01-.62-.026l-.107-.008a8.44 8.44 0 0 1-.618-.077l-.028-.004a8.31 8.31 0 0 1-1.273-.318l-.039-.013a8.467 8.467 0 0 1-.609-.234c-.001 0-.003 0-.004-.002a8.51 8.51 0 0 1-.558-.267l-.072-.037A8.446 8.446 0 0 1 5 16.677l-.044-.034.031-.018 2.588-1.411c.445-.243.722-.709.722-1.216V12.82l-.076-.091a5.464 5.464 0 0 1-.982-2.035l-.03-.13-.111-.072a.542.542 0 0 1-.252-.455v-1.16c0-.153.065-.294.182-.4l.108-.098V6.556l-.003-.043c0-.008-.097-.795.457-1.427.474-.54 1.285-.813 2.41-.813 1.121 0 1.93.271 2.404.807.554.625.463 1.427.463 1.434l-.003 1.865.108.098a.535.535 0 0 1 .182.4v1.16a.547.547 0 0 1-.387.516l-.162.05-.053.162a6.055 6.055 0 0 1-.816 1.647c-.086.12-.17.228-.241.31l-.081.093v1.21c0 .528.293 1.003.765 1.238l2.77 1.385.053.028-.106.076z"></path><path d="M19 10c0-4.962-4.038-9-9-9s-9 4.038-9 9a8.977 8.977 0 0 0 2.921 6.63l-.008.007.292.247c.019.016.04.029.058.044.155.129.316.251.48.37l.16.113c.174.12.354.235.537.343l.12.07c.201.114.406.221.616.32l.046.021a8.915 8.915 0 0 0 2.177.689l.06.01c.237.042.477.075.72.096l.088.007c.241.02.486.033.733.033.245 0 .487-.013.727-.032l.091-.007c.241-.022.479-.054.713-.094l.061-.011a8.915 8.915 0 0 0 2.146-.673l.075-.034a9.034 9.034 0 0 0 1.254-.716c.06-.041.12-.085.18-.128.143-.103.285-.21.422-.322.03-.024.063-.046.093-.07l.3-.25-.01-.008A8.977 8.977 0 0 0 19 10zM1.655 10c0-4.602 3.743-8.345 8.345-8.345S18.346 5.398 18.346 10c0 2.48-1.089 4.71-2.812 6.239a2.454 2.454 0 0 0-.292-.176l-2.77-1.385a.725.725 0 0 1-.404-.653v-.967a6.67 6.67 0 0 0 1.058-1.944c.415-.197.683-.61.683-1.077v-1.16a1.19 1.19 0 0 0-.29-.775V6.574c.016-.17.076-1.128-.617-1.919-.603-.688-1.58-1.037-2.902-1.037-1.323 0-2.299.349-2.902 1.037-.693.79-.633 1.75-.616 1.92V8.1c-.186.217-.29.492-.29.776v1.16c0 .36.161.696.438.923a6.15 6.15 0 0 0 1.012 2.091v.947a.73.73 0 0 1-.38.641L4.674 16.05a2.373 2.373 0 0 0-.246.155A8.325 8.325 0 0 1 1.655 10zm13.24 6.752a8.452 8.452 0 0 1-.348.24c-.055.036-.109.072-.164.106a8.174 8.174 0 0 1-.472.271c-.035.02-.071.037-.107.055-.368.189-.75.351-1.141.483l-.042.014a8.389 8.389 0 0 1-.623.181h-.002a8.362 8.362 0 0 1-.643.132c-.006 0-.011.002-.017.003a8.346 8.346 0 0 1-.614.075l-.11.008a8.16 8.16 0 0 1-.612.026c-.207 0-.414-.01-.62-.026l-.107-.008a8.44 8.44 0 0 1-.618-.077l-.028-.004a8.31 8.31 0 0 1-1.273-.318l-.039-.013a8.467 8.467 0 0 1-.609-.234c-.001 0-.003 0-.004-.002a8.51 8.51 0 0 1-.558-.267l-.072-.037A8.446 8.446 0 0 1 5 16.677l-.044-.034.031-.018 2.588-1.411c.445-.243.722-.709.722-1.216V12.82l-.076-.091a5.464 5.464 0 0 1-.982-2.035l-.03-.13-.111-.072a.542.542 0 0 1-.252-.455v-1.16c0-.153.065-.294.182-.4l.108-.098V6.556l-.003-.043c0-.008-.097-.795.457-1.427.474-.54 1.285-.813 2.41-.813 1.121 0 1.93.271 2.404.807.554.625.463 1.427.463 1.434l-.003 1.865.108.098a.535.535 0 0 1 .182.4v1.16a.547.547 0 0 1-.387.516l-.162.05-.053.162a6.055 6.055 0 0 1-.816 1.647c-.086.12-.17.228-.241.31l-.081.093v1.21c0 .528.293 1.003.765 1.238l2.77 1.385.053.028-.106.076z" mask="url(#a)"></path>
		</symbol>
	
		<symbol id="icon-down-arrow" viewBox="0 0 16 138">
			<path d="M7.293 137.707a1 1 0 0 0 1.414 0l6.364-6.364a1 1 0 1 0-1.414-1.414L8 135.586l-5.657-5.657a1 1 0 1 0-1.414 1.414l6.364 6.364zM7 0v137h2V0H7z"></path>
		</symbol>
	
		<symbol id="icon-facebook" viewBox="0 0 32 32">
			<path d="M26.568 4.006L22.938 4c-4.08 0-6.716 2.705-6.716 6.89v3.178H12.57a.571.571 0 0 0-.571.571v4.604c0 .315.256.57.57.57h3.652V31.43a.57.57 0 0 0 .57.571h4.764a.57.57 0 0 0 .57-.57V19.812h4.27a.57.57 0 0 0 .57-.57l.002-4.604a.572.572 0 0 0-.571-.571h-4.27v-2.693c0-1.295.308-1.952 1.995-1.952h2.446a.57.57 0 0 0 .57-.572V4.577a.571.571 0 0 0-.57-.571z"></path>
		</symbol>
	
		<symbol id="icon-hotel" viewBox="0 0 85 85">
			<path d="M36.833 41.084h2.834v2.833h-2.834v-2.833zM31.167 41.084H34v2.833h-2.833v-2.833zM53.833 45.334h2.834v2.833h-2.834v-2.833zM48.167 45.334H51v2.833h-2.833v-2.833zM53.833 39.668h2.834V42.5h-2.834v-2.833zM48.167 39.668H51V42.5h-2.833v-2.833zM53.833 34.001h2.834v2.833h-2.834v-2.833zM48.167 34.001H51v2.833h-2.833v-2.833zM53.833 28.334h2.834v2.834h-2.834v-2.834zM48.167 28.334H51v2.834h-2.833v-2.834zM53.833 22.668h2.834V25.5h-2.834v-2.833zM48.167 22.668H51V25.5h-2.833v-2.833zM25.5 41.084h2.833v2.833H25.5v-2.833zM36.833 35.417h2.834v2.833h-2.834v-2.833zM31.167 35.417H34v2.834h-2.833v-2.834zM25.5 35.417h2.833v2.833H25.5v-2.833zM36.833 29.75h2.834v2.834h-2.834V29.75zM31.167 29.75H34v2.834h-2.833V29.75zM25.5 29.75h2.833v2.834H25.5V29.75zM36.833 24.084h2.834v2.834h-2.834v-2.834zM31.167 24.084H34v2.833h-2.833v-2.833zM25.5 24.084h2.833v2.833H25.5v-2.833zM36.833 18.417h2.834v2.833h-2.834v-2.833zM31.167 18.417H34v2.834h-2.833v-2.834zM25.5 18.417h2.833v2.833H25.5v-2.833zM36.833 12.75h2.834v2.834h-2.834v-2.833zM31.167 12.75H34v2.834h-2.833v-2.833zM25.5 12.75h2.833v2.834H25.5v-2.833zM24.083 59.5h2.834v2.834h-2.834V59.5zM29.75 59.5h11.333v2.834H29.75V59.5zM18.417 65.167h29.75V68h-29.75v-2.833z"></path><path d="M85 52.417c0-10.483-2.714-17-7.083-17-4.37 0-7.084 6.517-7.084 17a7.096 7.096 0 0 0 5.667 6.942v22.808h-5.667v-8.5h1.417c.782 0 1.417-.635 1.417-1.417v-9.916c0-.55-.32-1.051-.818-1.284l-6.076-2.833a1.417 1.417 0 0 0-1.353.083 17.844 17.844 0 0 1-3.087 1.552V19.834c0-.572-.343-1.087-.87-1.308l-16.13-6.72V1.418A1.417 1.417 0 0 0 43.42.09l-22.666 8.5c-.554.207-.92.737-.92 1.327v45.911a27.6 27.6 0 0 0-8.236 7.1 1.41 1.41 0 0 0-.264.822v8.5c0 .782.635 1.417 1.417 1.417h1.417v8.5H8.5V59.359a7.096 7.096 0 0 0 5.667-6.942c0-10.483-2.715-17-7.084-17S0 41.934 0 52.417a7.096 7.096 0 0 0 5.667 6.942v22.808H0V85h85v-2.833h-5.667V59.359A7.096 7.096 0 0 0 85 52.417zm-82.167 0c0-9.775 2.485-14.166 4.25-14.166 1.765 0 4.25 4.391 4.25 14.166a4.25 4.25 0 0 1-2.833 3.99v-3.99H5.667v3.99a4.25 4.25 0 0 1-2.834-3.99zm53.834 8.5c-4.216 0-6.708-1.673-9.593-3.61a74.279 74.279 0 0 0-1.74-1.133v-2.34H59.5v6.814a15.57 15.57 0 0 1-2.833.269zM59.5 20.779V51H45.333V14.876L59.5 20.779zm-17-17.317V46.75H22.667V10.9L42.5 3.461zM22.667 49.584H42.5v4.99a21.86 21.86 0 0 0-9.917-2.157 25.255 25.255 0 0 0-9.916 2.022v-4.855zm-8.5 14.65a24.494 24.494 0 0 1 18.416-8.984c6.344 0 9.682 2.242 12.912 4.409 2.996 2.012 6.093 4.091 11.172 4.091a18.904 18.904 0 0 0 9.592-2.648l4.574 2.134v7.598H14.167v-6.6zm18.416 9.433V76.5h-9.916v-2.833h9.916zm-9.916 5.666h9.916v2.834h-9.916v-2.834zm12.75-5.666h5.666v8.5h-5.666v-8.5zm8.5 0h5.666v8.5h-5.666v-8.5zm8.5 5.666h9.916v2.834h-9.916v-2.834zm9.916-2.833h-9.916v-2.833h9.916V76.5zM17 82.167v-8.5h2.833v8.5H17zm48.167 0v-8.5H68v8.5h-2.833zm8.5-29.75c0-9.775 2.484-14.166 4.25-14.166 1.765 0 4.25 4.391 4.25 14.166a4.25 4.25 0 0 1-2.834 3.99v-3.99H76.5v3.99a4.25 4.25 0 0 1-2.833-3.99z"></path><path d="M65.167 65.167H68V68h-2.833v-2.833z"></path>
		</symbol>
	
		<symbol id="icon-lens" viewBox="0 0 24 24">
			<path d="M23.088 21.348l.089-.088-.089-.089-6.418-6.418a8.68 8.68 0 0 0 1.685-5.138c0-4.82-3.92-8.74-8.74-8.74s-8.74 3.92-8.74 8.74 3.92 8.74 8.74 8.74a8.68 8.68 0 0 0 5.138-1.685l6.418 6.418.089.089.088-.089 1.74-1.74zm-7.41-5.451l.128-.306.09.087.074-.073.015-.014a.172.172 0 0 0 .005-.005l5.673 5.674-.404.403-5.673-5.673a.172.172 0 0 1 .005-.005l.012-.012.075-.076zM1.945 9.615c0-4.229 3.441-7.67 7.67-7.67 4.23 0 7.67 3.441 7.67 7.67 0 4.23-3.44 7.67-7.67 7.67-4.229 0-7.67-3.44-7.67-7.67z"></path>
		</symbol>
	
		<symbol id="icon-map-marker" viewBox="0 0 29 40">
			<path d="M23.915 4.103A13.917 13.917 0 0 0 14.009 0c-3.742 0-7.26 1.457-9.905 4.103C-.793 9-1.402 18.211 2.786 23.792L14.009 40l11.207-16.186C29.42 18.211 28.81 9 23.915 4.104zm-9.777 14.89a5.12 5.12 0 0 1-5.113-5.113 5.12 5.12 0 0 1 5.113-5.114 5.12 5.12 0 0 1 5.114 5.114 5.12 5.12 0 0 1-5.114 5.113z"></path>
		</symbol>
	
		<symbol id="icon-mobile" viewBox="0 0 61 95">
			<path d="M25.322 6.333h3.165V9.5h-3.165V6.333zM31.651 6.333h3.166V9.5H31.65V6.333z"></path><path d="M6.33 95h47.477a6.332 6.332 0 0 0 6.33-6.333V6.333A6.332 6.332 0 0 0 53.808 0H6.33A6.332 6.332 0 0 0 0 6.333v82.334A6.332 6.332 0 0 0 6.33 95zm47.477-3.167H6.33a3.166 3.166 0 0 1-3.165-3.166v-6.334h53.807v6.334a3.166 3.166 0 0 1-3.165 3.166zM3.165 79.167V15.833h53.807v63.334H3.165zm3.165-76h47.477a3.166 3.166 0 0 1 3.165 3.166v6.334H3.165V6.333A3.166 3.166 0 0 1 6.33 3.167z"></path><path d="M51.654 24.114a1.593 1.593 0 0 0-1.305-.337L25.174 28.5h-7.766a3.166 3.166 0 0 0-3.165 3.166v.159a7.916 7.916 0 0 0 0 15.517v.158a3.166 3.166 0 0 0 3.165 3.166V66.5a4.749 4.749 0 1 0 9.496 0V57h4.747c.874 0 1.583-.71 1.583-1.584V52.18l17.115 3.21a1.583 1.583 0 0 0 1.875-1.556v-28.5a1.581 1.581 0 0 0-.57-1.219zm-34.246 7.552h6.33V47.5h-6.33V31.666zm-6.33 7.917a4.76 4.76 0 0 1 3.165-4.48v8.96a4.76 4.76 0 0 1-3.165-4.48zm12.66 11.084v9.5h-3.165v-9.5h3.165zm-1.582 17.416a1.583 1.583 0 0 1-1.583-1.583v-3.167h3.165V66.5c0 .874-.708 1.583-1.582 1.583zm7.913-14.25h-3.165v-2.85l3.165.594v2.256zm18.99-1.9L26.905 47.77V31.397l22.156-4.164v24.7zM28.487 85.5h3.165v3.167h-3.165V85.5z"></path>
		</symbol>
	
		<symbol id="icon-odnoklassniki" viewBox="0 0 32 32">
			<path d="M15.024 19.905c-1.86-.194-3.538-.652-4.974-1.776-.178-.14-.362-.274-.525-.43-.629-.604-.692-1.296-.194-2.008.425-.61 1.14-.773 1.882-.423.144.068.28.153.412.244 2.677 1.839 6.354 1.89 9.04.082.267-.204.551-.37.88-.455.642-.165 1.24.07 1.584.632.393.64.388 1.266-.096 1.763-.743.763-1.637 1.315-2.63 1.7-.938.364-1.967.547-2.984.668.153.168.226.25.322.346 1.382 1.389 2.77 2.772 4.147 4.164.47.475.567 1.063.309 1.615-.283.604-.915 1-1.535.958-.393-.027-.7-.223-.972-.497-1.043-1.05-2.105-2.08-3.127-3.149-.297-.31-.44-.252-.702.018a210.063 210.063 0 0 1-3.188 3.201c-.482.475-1.055.56-1.614.29-.593-.289-.971-.895-.942-1.504.02-.412.223-.726.505-1.009 1.368-1.365 2.732-2.734 4.096-4.102.09-.091.175-.188.306-.328z"></path><path d="M16.022 15.148C12.702 15.136 9.98 12.385 10 9.06c.02-3.36 2.743-6.07 6.095-6.06 3.358.01 6.054 2.757 6.037 6.153-.017 3.317-2.758 6.006-6.11 5.995zm3.016-6.08a2.958 2.958 0 0 0-2.968-2.966 2.963 2.963 0 0 0-2.974 3.002 2.958 2.958 0 0 0 2.99 2.943 2.952 2.952 0 0 0 2.952-2.979z"></path>
		</symbol>
	
		<symbol id="icon-question" viewBox="0 0 20 20">
			<path d="M10 .875C4.968.875.875 4.968.875 10S4.968 19.125 10 19.125s9.125-4.093 9.125-9.125S15.032.875 10 .875zm0 17.308c-4.512 0-8.183-3.671-8.183-8.183 0-4.512 3.671-8.183 8.183-8.183 4.512 0 8.183 3.671 8.183 8.183 0 4.512-3.671 8.183-8.183 8.183z"></path><path d="M10 13.683a.47.47 0 0 0-.471.47v.693a.47.47 0 1 0 .942 0v-.692a.47.47 0 0 0-.471-.471zm.04-9.693a2.913 2.913 0 0 1 2.854 2.853 2.88 2.88 0 0 1-1.327 2.475c-.672.434-1.096 1.245-1.096 2.121v.984a.47.47 0 1 1-.942 0v-.984c0-1.204.569-2.294 1.528-2.913.57-.368.904-.991.895-1.67-.015-1.026-.897-1.909-1.924-1.923h-.001a1.92 1.92 0 0 0-1.398.562c-.375.37-.58.863-.58 1.39a.47.47 0 1 1-.943 0c0-.78.306-1.513.862-2.061l2.073-.833zm0 0h-.019m.018 0h-.018m0 0h-.022m.022 0h-.022m0 0c-.765 0-1.485.295-2.031.834l2.031-.834z"></path>
		</symbol>
	
		<symbol id="icon-twitter" viewBox="0 0 32 32">
			<path d="M27.622 9.248c-.87.381-1.803.64-2.783.756a4.827 4.827 0 0 0 2.13-2.653 9.828 9.828 0 0 1-3.079 1.165A4.854 4.854 0 0 0 20.353 7c-2.676 0-4.846 2.149-4.846 4.797 0 .376.043.743.126 1.093a13.803 13.803 0 0 1-9.987-5.013 4.726 4.726 0 0 0-.656 2.412c0 1.665.857 3.133 2.155 3.993a4.882 4.882 0 0 1-2.194-.602v.06c0 2.324 1.67 4.263 3.886 4.705a4.952 4.952 0 0 1-1.277.168 4.58 4.58 0 0 1-.912-.09 4.842 4.842 0 0 0 4.526 3.333 9.783 9.783 0 0 1-6.018 2.05c-.391 0-.777-.022-1.156-.065A13.795 13.795 0 0 0 11.428 26c8.914 0 13.786-7.311 13.786-13.652l-.016-.621a9.624 9.624 0 0 0 2.424-2.479z"></path>
		</symbol>
	
		<symbol id="icon-vk" viewBox="0 0 32 32">
			<path d="M26.122 22.94c-.128.017-.257.037-.386.038-1.265.002-2.53-.001-3.794.004a.705.705 0 0 1-.456-.17c-.264-.216-.535-.429-.779-.668-.633-.628-1.25-1.273-1.878-1.906-.195-.198-.404-.38-.61-.566-.107-.1-.24-.122-.379-.12-.185.005-.338.088-.41.26a1.726 1.726 0 0 0-.14.489c-.031.3-.033.602-.039.902-.007.336-.017.675-.111 1.002a1.987 1.987 0 0 1-.177.422.677.677 0 0 1-.598.352c-1.104.025-2.21.041-3.312-.031a1.552 1.552 0 0 1-.575-.17 9.348 9.348 0 0 1-2.718-2.013c-.956-1.018-1.824-2.11-2.692-3.2-1.168-1.472-2.178-3.046-3.086-4.688-.332-.599-.652-1.205-.89-1.85a1.523 1.523 0 0 1-.029-.956 1.02 1.02 0 0 1 .123-.272.388.388 0 0 1 .339-.195l.159-.002c1.147 0 2.293.005 3.44-.004.226-.001.4.075.551.228a4.5 4.5 0 0 1 .7.955c.215.373.43.749.62 1.136.417.851.928 1.646 1.47 2.42.264.377.55.74.824 1.109.127.172.304.237.507.242.198.007.28-.074.287-.272.002-.047.001-.094.001-.142l-.001-3.882c0-.1 0-.202-.01-.301-.023-.232-.145-.367-.374-.411-.104-.02-.21-.03-.315-.043-.323-.043-.456-.18-.49-.503-.05-.49.184-.871.643-1.043.197-.073.401-.09.61-.089 1.022.002 2.045 0 3.067.001.207 0 .414-.01.62.008.216.02.434.049.644.11.447.13.706.434.756.902.013.112.016.224.016.336.002.786.002 1.572.002 2.357 0 .834 0 1.667.002 2.5 0 .081.006.167.029.244.073.253.348.337.579.178.68-.47 1.128-1.123 1.472-1.85.318-.672.592-1.365.89-2.046.24-.54.485-1.077.734-1.612.06-.133.15-.254.234-.375a.352.352 0 0 1 .317-.157c1.484.005 2.966.004 4.45.003.363 0 .65.147.877.423.08.098.113.213.134.34.088.584-.112 1.093-.392 1.584-.265.464-.58.892-.922 1.298-.71.84-1.406 1.69-2.014 2.608-.157.236-.29.487-.433.73a.409.409 0 0 0 .04.509c.269.322.528.654.81.962.67.734 1.356 1.45 2.03 2.181.216.235.41.487.611.736.066.082.115.178.18.262.503.65-.124 1.623-.758 1.707z"></path>
		</symbol>
	
		<symbol id="icon-wallet" viewBox="0 0 83 95">
			<path d="M38.225 3.166h3.186v9.5h-3.186v-9.5z"></path><path d="M82.82 60.167c0-2.624-2.138-4.75-4.777-4.75V39.583c0-.874-.714-1.583-1.593-1.583h-6.371v-7.917c0-.874-.713-1.583-1.593-1.583H58.66c-1.025-6.215-5.107-11.51-10.878-14.11V9.5h-3.185v5.937c0 .653.402 1.239 1.013 1.476 8.186 3.168 12.239 12.334 9.052 20.472-.081.207-.166.412-.256.615H43.481a4.467 4.467 0 0 0-.42-6.33 4.517 4.517 0 0 0-.975-.648l-3.105-1.544a1.348 1.348 0 0 1-.609-1.814 1.36 1.36 0 0 1 1.213-.747h.465c.75 0 1.36.605 1.36 1.352v.23h3.186v-.23a4.514 4.514 0 0 0-3.186-4.29v-1.812h-3.185v1.813c-2.389.738-3.723 3.262-2.98 5.637a4.51 4.51 0 0 0 2.308 2.694l3.104 1.544c.672.333.945 1.146.609 1.814-.23.458-.7.747-1.216.748h-.465a1.358 1.358 0 0 1-1.36-1.353v-.23h-3.186v.23c.004 1.08.4 2.123 1.115 2.936H25.23a15.542 15.542 0 0 1-1.34-6.333c.012-6.187 3.635-11.803 9.285-14.396.28-.127.564-.247.853-.36a1.584 1.584 0 0 0 1.011-1.474V6.333h-3.185v8.058h-.01A19.079 19.079 0 0 0 20.986 28.5H6.371C2.852 28.5 0 31.335 0 34.833v53.834C0 92.164 2.852 95 6.37 95h70.08c.88 0 1.593-.709 1.593-1.583V77.583c2.638 0 4.778-2.126 4.778-4.75V60.167zm-23.89-28.5h7.964V38h-9.079a18.647 18.647 0 0 0 1.115-6.333zm-52.56 0h14.335c.002 2.159.38 4.301 1.115 6.333H6.37a3.176 3.176 0 0 1-3.185-3.167 3.176 3.176 0 0 1 3.186-3.166zm-3.185 57v-48.38a6.34 6.34 0 0 0 3.186.88v50.666a3.176 3.176 0 0 1-3.186-3.166zm71.672 3.166h-65.3V41.167h65.3v14.25H54.152c-6.157 0-11.149 4.962-11.149 11.083s4.992 11.083 11.149 11.083h20.705v14.25zm4.778-19c0 .875-.713 1.584-1.593 1.584h-23.89c-4.398 0-7.964-3.545-7.964-7.917s3.566-7.917 7.964-7.917h23.89c.88 0 1.593.71 1.593 1.584v12.666z"></path><path d="M54.152 61.75c-2.639 0-4.778 2.127-4.778 4.75 0 2.624 2.14 4.75 4.778 4.75 2.64 0 4.778-2.126 4.778-4.75 0-2.623-2.139-4.75-4.778-4.75zm0 6.334c-.88 0-1.593-.71-1.593-1.584 0-.874.714-1.583 1.593-1.583.88 0 1.593.709 1.593 1.583s-.713 1.584-1.593 1.584zM44.595 3.166h3.186v3.167h-3.186V3.166zM31.854 0h3.185v3.167h-3.185V0zM47.781 30.083h3.186v3.167H47.78v-3.167zM28.669 30.083h3.185v3.167H28.67v-3.167z"></path>
		</symbol>
	
</svg>
