<svg width="192" height="75" viewBox="0 0 192 75" fill="none" xmlns="http://www.w3.org/2000/svg">
<path d="M97.7509 28.2125H102.598C104.306 28.2125 105.529 28.486 106.27 29.0334C107.011 29.5804 107.382 30.4396 107.382 31.6101C107.382 33.0297 106.904 33.9884 105.948 34.487C105.1 34.9205 103.94 35.1373 102.47 35.1373H101.004V39.4286L102.646 39.8027V40.4041H97.7509V39.8027L99.3132 39.4286V29.188L97.7509 28.8139V28.2125ZM101.004 34.4864H102.807C103.719 34.4864 104.399 34.2591 104.844 33.8039C105.29 33.3487 105.513 32.6389 105.513 31.6741C105.513 30.7103 105.29 30 104.844 29.5448C104.398 29.0901 103.719 28.8623 102.807 28.8623H101.004V34.4864Z" fill="black"/>
<path d="M117.735 40.4028V39.8014L119.313 39.4435V34.5508H113.419V39.4435L115.03 39.8014V40.4028H110.118V39.8014L111.728 39.4435V29.204L110.118 28.8138V28.2124H115.03V28.8138L113.419 29.204V33.8199H119.313V29.204L117.735 28.8138V28.2124H122.631V28.8138L121.004 29.1878V39.4279L122.631 39.802V40.4034H117.735V40.4028Z" fill="black"/>
<path d="M134.243 28.2124H138.253V28.7977L136.739 29.204V35.7218C136.739 39.0055 135.182 40.6468 132.069 40.6468C130.479 40.6468 129.315 40.2166 128.574 39.3546C127.833 38.4931 127.463 37.2125 127.463 35.5106V29.204L125.852 28.8138V28.2124H130.748V28.8138L129.153 29.1878V35.8197C129.153 37.2286 129.427 38.2608 129.974 38.916C130.522 39.5713 131.338 39.8998 132.422 39.8998C134.709 39.8998 135.852 38.4797 135.852 35.6413V29.204L134.241 28.7977V28.2124H134.243Z" fill="black"/>
<path d="M147.915 28.2124H152.006V28.8138L150.572 29.1717L146.192 33.3325L151.2 39.4441L153.101 39.802V40.4034H149.718L144.758 34.259V39.4441L146.369 39.802V40.4034H141.473V39.802L143.067 39.4279V29.204L141.473 28.8138V28.2124H146.369V28.8138L144.758 29.1878V33.9338L149.171 29.1228L147.915 28.8138V28.2124Z" fill="black"/>
<path d="M156.16 28.2124H165.033V31.1215H164.196L163.567 28.9105H159.444V33.771H162.553L162.988 32.3565H163.584V35.7213H162.988L162.553 34.4857H159.444V39.7036H163.857L164.486 37.5093H165.339V40.4028H156.16V39.8014L157.754 39.4274V29.204L156.16 28.8138V28.2124Z" fill="black"/>
<path d="M170.123 40.403V39.8016L171.685 39.4276V28.9112H168.738L168.11 31.2851H167.272V28.2131H177.837V31.2851H177L176.372 28.9112H173.376V39.4442L175.019 39.8022V40.4036H170.123V40.403Z" fill="black"/>
<path d="M109.136 58.4636H105.883L101.905 53.0345H101.003V57.4881L102.645 57.8622V58.4636H97.7499V57.8622L99.3121 57.4881V47.248L97.7499 46.874V46.2726H102.597C104.305 46.2726 105.528 46.5327 106.269 47.0524C107.01 47.5732 107.381 48.4074 107.381 49.5557C107.381 50.704 107.047 51.5583 106.382 52.1157C105.716 52.6738 104.841 52.9528 103.757 52.9528L107.381 57.5037L109.136 57.8616V58.4636ZM101.003 46.9229V52.4003H102.807C103.719 52.4003 104.398 52.1835 104.844 51.75C105.289 51.317 105.512 50.6206 105.512 49.6613C105.512 48.702 105.292 48.0056 104.852 47.5726C104.411 47.1391 103.73 46.9223 102.807 46.9223H101.003V46.9229Z" fill="black"/>
<path d="M112.196 46.2726H121.07V49.1817H120.232L119.604 46.9707H115.481V51.8312H118.589L119.024 50.4166H119.62V53.7815H119.024L118.589 52.5459H115.481V57.7638H119.894L120.522 55.5695H121.376V58.463H112.196V57.8616L113.791 57.4876V47.2636L112.196 46.8734V46.2726Z" fill="black"/>
<path d="M132.857 46.2731H136.819V46.8745L135.24 47.2803V58.4636H134.113L126.576 47.3125V57.5042L128.154 57.8622V58.4636H124.273V57.8622L125.771 57.5042V47.2964L124.273 46.874V46.2726H127.864L134.435 55.8952V47.2964L132.857 46.874V46.2731H132.857Z" fill="black"/>
<path d="M142.407 58.4637V57.8624L143.97 57.4883V46.9714H141.022L140.394 49.3452H139.557V46.2733H150.122V49.3452H149.284L148.656 46.9714H145.661V57.5044L147.303 57.8624V58.4637H142.407Z" fill="black"/>
<path d="M163.407 58.4636V57.8622L164.985 57.4881V47.2803L160.605 58.4636H159.623L155.242 47.2803V57.4881L156.853 57.8622V58.4636H152.859V57.8622L154.405 57.4881V47.2964L153.037 46.874V46.2726H156.499L160.573 56.4482L164.535 46.2726H168.335V46.874L166.661 47.2641V57.4881L168.303 57.8622V58.4636H163.407Z" fill="black"/>
<path d="M172.039 46.2726H176.935V46.874L175.324 47.248V57.5042L176.935 57.8622V58.4636H172.039V57.8622L173.633 57.4881V47.2641L172.039 46.874V46.2726Z" fill="black"/>
<path d="M179.994 46.2726H184.89V46.874L183.634 47.2152L186.131 51.2303L188.804 47.2803L187.387 46.8578V46.2726H191.332V46.8578L189.915 47.2964L186.662 51.8478L190.206 57.4714L191.752 57.8616V58.463H186.856V57.8616L188.176 57.5204L185.551 53.2779L182.669 57.5693L183.957 57.8783V58.4636H180.011V57.8783L181.461 57.5042L184.971 52.6443L181.573 47.2803L179.995 46.8745V46.2726H179.994Z" fill="black"/>
<path d="M100.247 65.0662L101.631 68.063H101.311L100.844 67.0771H99.5651L99.1019 68.063H98.771L100.173 65.0662H100.247ZM100.209 65.7031L99.7011 66.7875H100.715L100.209 65.7031Z" fill="black"/>
<path d="M102.503 65.0651H103.094C103.433 65.0651 103.662 65.0795 103.78 65.1095C103.95 65.1518 104.089 65.2385 104.196 65.3696C104.303 65.5008 104.357 65.6653 104.357 65.8637C104.357 66.0633 104.305 66.2278 104.2 66.3579C104.095 66.4874 103.95 66.5752 103.766 66.6202C103.632 66.653 103.38 66.6691 103.012 66.6691H102.799V68.0625H102.503V65.0651ZM102.799 65.3585V66.3751L103.302 66.3812C103.505 66.3812 103.654 66.3629 103.748 66.3256C103.842 66.2884 103.917 66.2278 103.97 66.1444C104.024 66.0616 104.051 65.9682 104.051 65.8649C104.051 65.7643 104.024 65.6726 103.97 65.5892C103.916 65.5064 103.845 65.4469 103.757 65.4119C103.669 65.3769 103.525 65.3585 103.324 65.3585H102.799Z" fill="black"/>
<path d="M105.367 65.0651H107.069V65.358H105.664V66.2973H107.056V66.5902H105.664V67.7679H107.056V68.0608H105.367V65.0651Z" fill="black"/>
<path d="M107.99 65.0651H108.287V66.3223H109.799V65.0651H110.096V68.0619H109.799V66.6152H108.287V68.0619H107.99V65.0651Z" fill="black"/>
<path d="M111.223 68.5105H110.931V67.7829H111.172L112.337 65.0651H112.44L113.671 67.7829H113.902V68.5105H113.609V68.0619H111.224V68.5105H111.223ZM111.507 67.7829H113.32L112.39 65.682L111.507 67.7829Z" fill="black"/>
<path d="M115.95 65.0651L117.334 68.0619H117.014L116.547 67.076H115.268L114.805 68.0619H114.474L115.877 65.0651H115.95ZM115.912 65.702L115.404 66.7864H116.419L115.912 65.702Z" fill="black"/>
<path d="M122.101 68.0619H121.792V65.7643L119.834 68.0619H119.768V65.0651H120.064V67.4022L122.034 65.0651H122.1V68.0619H122.101Z" fill="black"/>
<path d="M124.791 65.0651H126.896V68.0619H126.6V65.3502H125.088V68.0619H124.791V65.0651Z" fill="black"/>
<path d="M128.029 65.0651H128.621C128.96 65.0651 129.189 65.0795 129.307 65.1095C129.477 65.1518 129.615 65.2385 129.723 65.3696C129.83 65.5008 129.884 65.6653 129.884 65.8637C129.884 66.0633 129.832 66.2278 129.727 66.3579C129.622 66.4874 129.477 66.5752 129.293 66.6202C129.158 66.653 128.907 66.6691 128.538 66.6691H128.326V68.0625H128.029V65.0651ZM128.326 65.3585V66.3751L128.828 66.3812C129.032 66.3812 129.181 66.3629 129.275 66.3256C129.369 66.2884 129.444 66.2278 129.497 66.1444C129.551 66.0616 129.577 65.9682 129.577 65.8649C129.577 65.7643 129.55 65.6726 129.497 65.5892C129.443 65.5064 129.372 65.4469 129.284 65.4119C129.196 65.3769 129.051 65.3585 128.851 65.3585H128.326Z" fill="black"/>
<path d="M132.306 64.9902C132.755 64.9902 133.132 65.1414 133.435 65.4443C133.738 65.7472 133.89 66.1202 133.89 66.5632C133.89 67.0017 133.738 67.3735 133.436 67.6792C133.134 67.9849 132.765 68.1377 132.33 68.1377C131.89 68.1377 131.518 67.986 131.216 67.6814C130.913 67.3774 130.761 67.0095 130.761 66.5776C130.761 66.2891 130.83 66.0229 130.968 65.7773C131.106 65.5316 131.294 65.3387 131.533 65.1998C131.771 65.0597 132.028 64.9902 132.306 64.9902ZM132.319 65.2815C132.099 65.2815 131.891 65.3393 131.694 65.4549C131.497 65.5705 131.343 65.7261 131.233 65.9218C131.123 66.118 131.067 66.3358 131.067 66.5765C131.067 66.9328 131.19 67.2335 131.434 67.4786C131.679 67.7237 131.973 67.8465 132.318 67.8465C132.549 67.8465 132.762 67.7898 132.958 67.677C133.154 67.5647 133.307 67.4102 133.417 67.2146C133.527 67.0184 133.582 66.801 133.582 66.562C133.582 66.3236 133.527 66.1091 133.417 65.9168C133.307 65.7239 133.153 65.5705 132.953 65.4549C132.753 65.3393 132.543 65.2815 132.319 65.2815Z" fill="black"/>
<path d="M134.89 68.5105H134.597V67.7829H134.839L136.004 65.0651H136.107L137.338 67.7829H137.569V68.5105H137.276V68.0619H134.89V68.5105H134.89ZM135.173 67.7829H136.986L136.057 65.682L135.173 67.7829Z" fill="black"/>
<path d="M139.616 65.0651L141.001 68.0619H140.68L140.213 67.076H138.935L138.471 68.0619H138.141L139.543 65.0651H139.616ZM139.579 65.702L139.07 66.7864H140.085L139.579 65.702Z" fill="black"/>
<path d="M143.594 66.6705V68.0623H143.293V66.6705L143.203 66.5877L141.989 68.0623H141.595L143.011 66.4026L141.708 65.0659H142.107L143.293 66.3326V65.0659H143.594V66.3326L144.784 65.0659H145.184L143.881 66.4021L145.295 68.0623H144.901L143.685 66.5877L143.594 66.6705Z" fill="black"/>
<path d="M147.367 65.0651L148.752 68.0619H148.431L147.964 67.076H146.685L146.222 68.0619H145.891L147.294 65.0651H147.367ZM147.329 65.702L146.82 66.7864H147.835L147.329 65.702Z" fill="black"/>
<path d="M151.179 65.0651H151.475V66.3223H152.987V65.0651H153.284V68.0619H152.987V66.6152H151.475V68.0619H151.179V65.0651Z" fill="black"/>
<path d="M154.422 65.0651H156.124V65.358H154.718V66.2973H156.111V66.5902H154.718V67.7679H156.111V68.0608H154.422V65.0651Z" fill="black"/>
<path d="M157.041 68.5105H156.749V67.7829H156.99L158.155 65.0651H158.258L159.489 67.7829H159.72V68.5105H159.427V68.0619H157.042V68.5105H157.041ZM157.325 67.7829H159.137L158.208 65.682L157.325 67.7829Z" fill="black"/>
<path d="M160.563 65.0651H161.148C161.384 65.0651 161.565 65.0934 161.691 65.1495C161.817 65.2057 161.917 65.2924 161.991 65.4091C162.064 65.5258 162.101 65.6553 162.101 65.7982C162.101 65.931 162.068 66.0527 162.004 66.1617C161.94 66.2706 161.846 66.3595 161.721 66.4279C161.875 66.4807 161.994 66.5429 162.076 66.6141C162.16 66.6858 162.225 66.7719 162.271 66.8731C162.318 66.9742 162.341 67.0837 162.341 67.2021C162.341 67.4428 162.254 67.6462 162.079 67.8124C161.905 67.9791 161.671 68.0619 161.378 68.0619H160.563V65.0651ZM160.853 65.3585V66.3184H161.024C161.23 66.3184 161.382 66.2989 161.479 66.2606C161.576 66.2222 161.652 66.1605 161.709 66.0772C161.766 65.9938 161.794 65.9015 161.794 65.7993C161.794 65.662 161.747 65.5547 161.651 65.4764C161.556 65.398 161.405 65.3591 161.198 65.3591H160.853V65.3585ZM160.853 66.6196V67.7685H161.222C161.439 67.7685 161.598 67.7468 161.699 67.704C161.799 67.6612 161.881 67.5945 161.942 67.5039C162.003 67.4128 162.034 67.3144 162.034 67.2082C162.034 67.0754 161.991 66.9592 161.905 66.8603C161.819 66.7608 161.7 66.693 161.549 66.6563C161.448 66.6319 161.273 66.6202 161.022 66.6202H160.853V66.6196Z" fill="black"/>
<path d="M165.677 68.0619H165.368V65.7643L163.41 68.0619H163.344V65.0651H163.64V67.4022L165.611 65.0651H165.677V68.0619H165.677Z" fill="black"/>
<path d="M168.533 66.6705V68.0623H168.232V66.6705L168.142 66.5877L166.927 68.0623H166.534L167.95 66.4026L166.647 65.0659H167.046L168.232 66.3326V65.0659H168.533V66.3326L169.723 65.0659H170.122L168.82 66.4021L170.234 68.0623H169.84L168.624 66.5877L168.533 66.6705Z" fill="black"/>
<path d="M173.427 68.0619H173.118V65.7643L171.16 68.0619H171.094V65.0651H171.39V67.4022L173.361 65.0651H173.427V68.0619H173.427Z" fill="black"/>
<path d="M174.427 68.0619L174.853 65.0651H174.901L176.108 67.5239L177.303 65.0651H177.35L177.778 68.0619H177.487L177.193 65.9188L176.144 68.0619H176.068L175.006 65.9021L174.714 68.0619H174.427Z" fill="black"/>
<path d="M180.189 64.9902C180.638 64.9902 181.015 65.1414 181.318 65.4443C181.621 65.7472 181.773 66.1202 181.773 66.5632C181.773 67.0017 181.621 67.3735 181.319 67.6792C181.017 67.9849 180.648 68.1377 180.213 68.1377C179.773 68.1377 179.401 67.986 179.099 67.6814C178.796 67.3774 178.644 67.0095 178.644 66.5776C178.644 66.2891 178.713 66.0229 178.851 65.7773C178.989 65.5316 179.177 65.3387 179.416 65.1998C179.654 65.0597 179.911 64.9902 180.189 64.9902ZM180.202 65.2815C179.983 65.2815 179.775 65.3393 179.578 65.4549C179.381 65.5705 179.227 65.7261 179.117 65.9218C179.006 66.118 178.951 66.3358 178.951 66.5765C178.951 66.9328 179.073 67.2335 179.318 67.4786C179.562 67.7237 179.857 67.8465 180.202 67.8465C180.432 67.8465 180.646 67.7898 180.842 67.677C181.038 67.5647 181.191 67.4102 181.301 67.2146C181.41 67.0184 181.465 66.801 181.465 66.562C181.465 66.3236 181.41 66.1091 181.301 65.9168C181.191 65.7239 181.036 65.5705 180.837 65.4549C180.637 65.3393 180.426 65.2815 180.202 65.2815Z" fill="black"/>
<path d="M185.547 65.6207L185.313 65.8024C185.183 65.6323 185.028 65.5039 184.847 65.4161C184.666 65.3288 184.468 65.2849 184.251 65.2849C184.014 65.2849 183.795 65.3427 183.593 65.4572C183.391 65.5723 183.235 65.7262 183.123 65.9197C183.013 66.1136 182.957 66.331 182.957 66.5727C182.957 66.9379 183.081 67.243 183.329 67.4876C183.578 67.7316 183.891 67.8539 184.269 67.8539C184.685 67.8539 185.033 67.6893 185.313 67.3609L185.547 67.5398C185.399 67.7299 185.214 67.8766 184.993 67.9811C184.772 68.0851 184.524 68.1368 184.251 68.1368C183.731 68.1368 183.321 67.9622 183.021 67.6132C182.77 67.3186 182.644 66.9629 182.644 66.5461C182.644 66.107 182.796 65.7379 183.101 65.4389C183.406 65.1393 183.787 64.9893 184.247 64.9893C184.524 64.9893 184.774 65.0448 184.997 65.1554C185.22 65.266 185.404 65.4217 185.547 65.6207Z" fill="black"/>
<path d="M186.261 65.3588V65.0659H187.887V65.3588H187.225V68.0623H186.923V65.3588H186.261Z" fill="black"/>
<path d="M191.064 68.0619H190.755V65.7643L188.797 68.0619H188.731V65.0651H189.027V67.4022L190.997 65.0651H191.063V68.0619H191.064Z" fill="black"/>
<path d="M20.4273 26.8126C15.3446 28.9224 12.2807 36.0845 14.2163 41.1184C16.3072 46.5569 22.1856 49.4277 27.3294 47.4479C30.4743 46.2373 32.4562 43.8168 33.7392 40.751C35.7916 35.8483 36.1737 30.6115 36.742 25.4148C37.3885 19.4994 38.4717 13.7235 40.8198 8.18879C43.251 2.45791 47.528 -0.108225 53.4852 0.00349107C56.8311 0.0662967 60.2485 0.124656 63.4865 0.852201C65.9182 1.39856 68.3863 2.65856 70.3616 4.21647C74.6585 7.60464 74.882 14.1598 71.0505 18.181C66.8334 22.6063 61.536 24.2765 55.5491 23.9386C54.2985 23.868 53.0524 23.7246 51.7252 23.6079C51.1993 26.4202 50.8073 29.1248 50.179 31.7726C47.6442 42.4568 40.0092 48.8407 29.1654 49.4971C25.564 49.715 22.1757 49.1575 18.8744 47.5618C11.1667 43.8368 11.4718 35.806 14.4823 31.0106C15.7863 28.9336 17.8953 27.3262 19.7951 25.6916C20.8805 24.7578 21.6917 22.8853 21.0512 21.5197C20.3667 20.0596 19.0754 20.0318 17.7885 20.372C9.34231 22.6019 3.98318 28.0176 2.22213 36.6292C-1.06041 52.6791 9.03228 68.495 24.738 72.2428C28.1736 73.0626 31.6158 73.0854 35.0818 72.315C42.355 70.6988 46.229 65.9383 47.3678 58.7407C48.2246 53.3244 48.6954 47.8392 49.7191 42.4584C50.3805 38.9836 51.3299 35.4437 52.8668 32.2889C55.0414 27.8247 58.9847 25.2925 63.9826 25.0963C68.3417 24.9251 72.7223 25.073 77.0842 25.278C81.0507 25.4648 84.4615 28.1043 85.4538 31.4241C86.5062 34.9451 85.2281 38.6473 81.8012 41.1206C80.2918 42.21 78.4669 42.862 76.7631 43.6656C76.2587 43.9035 75.68 43.9819 74.7042 44.2531C78.028 45.0791 80.3067 46.8526 80.7445 49.9045C81.1355 52.6302 80.853 55.4687 80.7252 58.2505C80.6553 59.7695 80.1828 61.2685 80.1052 62.788C80.0721 63.4339 80.5853 64.1086 80.8508 64.77C81.0732 64.7728 81.2962 64.7756 81.5187 64.7784C81.1735 65.1885 80.9069 65.7399 80.4708 65.9867C77.2642 67.8002 73.8358 68.9057 70.1342 68.3872C66.6352 67.8975 65.6638 66.1545 66.1368 62.6052C66.633 58.8813 66.997 55.1224 67.0912 51.3702C67.1292 49.8678 66.3852 48.306 65.8103 46.8465C65.5586 46.2073 64.8384 45.7566 64.0928 44.9679C63.5531 48.1215 63.3736 51.0139 62.5228 53.6895C61.4126 57.1794 60.0965 60.6871 58.2848 63.8463C55.2104 69.2081 49.8678 71.5114 44.2719 73.3088C28.5783 78.3499 11.6579 71.8537 4.08946 57.384C-0.991581 47.6696 -1.78124 37.5907 4.25521 27.8703C8.81477 20.5282 18.9576 16.5419 26.5871 18.6968C31.0878 19.9679 33.9055 24.7161 32.6428 28.9019C31.7645 31.8137 29.319 33.2749 25.7947 32.9926C22.7913 32.7525 20.9659 30.9761 20.5705 27.9098C20.5248 27.5541 20.478 27.1989 20.4273 26.8126ZM54.5722 2.55018C53.6212 9.31874 52.6972 15.8933 51.7638 22.534C54.9588 22.3051 57.1642 19.4971 58.0629 14.8995C59.2105 9.03027 57.9566 4.25427 54.5722 2.55018ZM66.6583 26.2185C65.8417 32.0266 65.0311 37.7903 64.2194 43.5634C67.0609 43.7874 69.3506 41.3424 70.2305 37.3134C71.377 32.0666 69.9712 27.4812 66.6583 26.2185Z" fill="url(#paint0_linear)"/>
<defs>
<linearGradient id="paint0_linear" x1="-9.7298e-05" y1="37.5" x2="85.8121" y2="37.5" gradientUnits="userSpaceOnUse">
<stop stop-color="#A1DAF8"/>
<stop offset="0.3992" stop-color="#0068B3"/>
<stop offset="1" stop-color="#312783"/>
</linearGradient>
</defs>
</svg>
