<svg width="47" height="47" viewBox="0 0 47 47" fill="none" xmlns="http://www.w3.org/2000/svg">
<path d="M47 43.2822L33.1245 29.4067C35.4277 26.333 36.8098 22.532 36.8098 18.4049C36.8098 8.25592 28.5539 0 18.4049 0C8.25592 0 0 8.25592 0 18.4049C0 28.5539 8.25592 36.8098 18.4049 36.8098C22.532 36.8098 26.333 35.4277 29.4067 33.1245L43.2822 47L47 43.2822ZM1.75285 18.4049C1.75285 9.22261 9.22261 1.75285 18.4049 1.75285C27.5872 1.75285 35.057 9.22261 35.057 18.4049C35.057 27.5872 27.5872 35.057 18.4049 35.057C9.22261 35.057 1.75285 27.5872 1.75285 18.4049ZM31.1718 31.6328C31.3278 31.482 31.4812 31.3287 31.6319 31.1727C31.7599 31.0403 31.8983 30.9185 32.0219 30.7826L44.5215 43.2822L43.2813 44.5223L30.7826 32.0219C30.9185 31.8983 31.0394 31.7599 31.1718 31.6328Z" fill="url(#paint0_linear)"/>
<defs>
<linearGradient id="paint0_linear" x1="-5.32908e-05" y1="23.5" x2="46.9999" y2="23.5" gradientUnits="userSpaceOnUse">
<stop stop-color="#0094FF"/>
<stop offset="1" stop-color="#312783"/>
</linearGradient>
</defs>
</svg>
