<svg width="13" height="18" viewBox="0 0 13 18" fill="none" xmlns="http://www.w3.org/2000/svg">
<path d="M12.4879 9.43841C12.0699 8.89794 11.4392 8.52671 10.5958 8.32494C11.6698 7.77708 12.1418 6.84724 12.0122 5.53526C11.9689 5.0595 11.8374 4.64718 11.6175 4.29768C11.3974 3.94811 11.1004 3.66708 10.7253 3.45448C10.3506 3.24162 9.94299 3.07958 9.50351 2.96786C9.06392 2.85615 8.55924 2.77503 7.9898 2.72463V0H6.32491V2.64893C6.03661 2.64893 5.59694 2.65612 5.00595 2.67055V0H3.34084V2.72463C3.1029 2.73186 2.75337 2.73553 2.29208 2.73553L0 2.72463V4.49782H1.20004C1.74786 4.49782 2.06862 4.74295 2.1623 5.23302V8.33611C2.23448 8.33611 2.29208 8.33982 2.33537 8.34702H2.1623V12.6933C2.1047 13.0608 1.8957 13.2447 1.53526 13.2447H0.335296L7.56972e-05 15.2233H2.16249C2.29947 15.2233 2.49756 15.2252 2.75716 15.2284C3.0166 15.2321 3.21113 15.2339 3.34091 15.2339V17.9909H5.0063V15.2663C5.30895 15.2737 5.74861 15.2772 6.32525 15.2772V17.9909H7.99017V15.2339C8.58135 15.2051 9.10569 15.1513 9.56319 15.0718C10.0209 14.9922 10.4589 14.8681 10.8769 14.6985C11.2948 14.5293 11.6443 14.3183 11.9254 14.066C12.2066 13.814 12.4389 13.4931 12.623 13.1038C12.8065 12.7145 12.9238 12.264 12.9741 11.7521C13.0682 10.7504 12.9059 9.97911 12.4879 9.43841ZM5.03833 4.61643C5.08881 4.61643 5.23116 4.61461 5.46542 4.61098C5.6998 4.60727 5.89433 4.60371 6.04929 4.60007C6.20429 4.59651 6.41333 4.60552 6.67653 4.62715C6.9396 4.64877 7.16121 4.67766 7.34136 4.71364C7.5215 4.74962 7.7199 4.80911 7.93595 4.89201C8.15237 4.97483 8.32524 5.07579 8.45483 5.1947C8.58469 5.31361 8.69458 5.46505 8.78452 5.64886C8.87473 5.83264 8.91979 6.04346 8.91979 6.28128C8.91979 6.48313 8.88741 6.66698 8.82262 6.83285C8.75794 6.9986 8.66039 7.1374 8.5308 7.24911C8.40117 7.36086 8.26757 7.45826 8.13059 7.54108C7.99377 7.6239 7.81882 7.69063 7.60626 7.74103C7.39373 7.79151 7.20814 7.83116 7.04965 7.85994C6.89105 7.8888 6.69288 7.90868 6.45499 7.91944C6.21706 7.93019 6.0368 7.93754 5.91433 7.9411C5.79174 7.94466 5.62421 7.94466 5.4115 7.9411C5.19875 7.93754 5.07457 7.93564 5.03845 7.93564V4.61639H5.03833V4.61643ZM9.58493 11.9793C9.51627 12.1451 9.42811 12.2894 9.32007 12.412C9.21184 12.5343 9.06942 12.6425 8.89291 12.7361C8.71643 12.83 8.54508 12.9055 8.37943 12.9632C8.21357 13.0211 8.01347 13.0713 7.77943 13.1147C7.54487 13.1579 7.33958 13.1884 7.1628 13.2065C6.9863 13.2246 6.77555 13.2389 6.53039 13.2499C6.28541 13.2605 6.09428 13.266 5.95738 13.266C5.82041 13.266 5.64739 13.264 5.43835 13.2605C5.22919 13.2571 5.09597 13.2553 5.03826 13.2553V9.60069C5.09586 9.60069 5.26706 9.59716 5.55184 9.58982C5.83666 9.58255 6.06899 9.57918 6.24921 9.57918C6.42939 9.57918 6.67815 9.58982 6.99542 9.61159C7.31239 9.63306 7.5791 9.66537 7.79553 9.70861C8.01169 9.75194 8.24757 9.81851 8.50365 9.90872C8.75945 9.99877 8.96679 10.1087 9.12542 10.2384C9.28402 10.3684 9.41728 10.5339 9.52536 10.7358C9.63371 10.9376 9.68775 11.1683 9.68775 11.4278C9.68771 11.6298 9.65351 11.8134 9.58493 11.9793Z" fill="#C4C4C4"/>
</svg>
