<svg width="20" height="20" viewBox="0 0 20 20" fill="none" xmlns="http://www.w3.org/2000/svg">
<mask id="path-1-outside-1" maskUnits="userSpaceOnUse" x="0" y="0" width="20" height="20" fill="black">
<rect fill="white" width="20" height="20"/>
<path d="M19 10C19 5.03756 14.9624 1 10 1C5.03756 1 1 5.03756 1 10C1 12.6211 2.12713 14.9837 3.92124 16.6299L3.91273 16.6374L4.20465 16.8835C4.22364 16.8996 4.24425 16.9127 4.26324 16.9284C4.41836 17.057 4.57905 17.1791 4.74269 17.2972C4.79571 17.3355 4.84873 17.3738 4.90273 17.4111C5.07749 17.5315 5.25684 17.6457 5.44011 17.7541C5.48004 17.7776 5.52029 17.8005 5.56055 17.8235C5.76116 17.9377 5.96604 18.0453 6.17582 18.1442C6.1912 18.1514 6.20691 18.1579 6.22229 18.1651C6.90596 18.4829 7.63578 18.7163 8.39898 18.854C8.41895 18.8576 8.43891 18.8612 8.4592 18.8648C8.69615 18.9057 8.93571 18.9385 9.17822 18.9604C9.20767 18.963 9.23713 18.9647 9.26691 18.9673C9.50844 18.9872 9.75258 19 10 19C10.2451 19 10.487 18.9872 10.7272 18.9679C10.7576 18.9653 10.7881 18.9637 10.8185 18.9611C11.0591 18.9391 11.2967 18.9074 11.5313 18.8671C11.5516 18.8635 11.5722 18.8599 11.5925 18.856C12.3443 18.7212 13.0636 18.4931 13.7384 18.1835C13.7633 18.172 13.7885 18.1612 13.8134 18.1494C14.0153 18.0545 14.2127 17.9521 14.4061 17.8431C14.4542 17.8159 14.502 17.7884 14.5497 17.7603C14.7258 17.6565 14.8989 17.5482 15.0672 17.433C15.1277 17.3918 15.1869 17.3483 15.2468 17.3051C15.3905 17.2016 15.5316 17.0949 15.6687 16.9833C15.6991 16.9588 15.7319 16.9375 15.7616 16.9123L16.0611 16.6623L16.0523 16.6548C17.8621 15.0079 19 12.6345 19 10ZM1.65455 10C1.65455 5.39822 5.39822 1.65455 10 1.65455C14.6018 1.65455 18.3455 5.39822 18.3455 10C18.3455 12.4797 17.2573 14.7091 15.5345 16.2388C15.4383 16.1724 15.3414 16.1128 15.2423 16.0631L12.4712 14.6777C12.2225 14.5533 12.068 14.3033 12.068 14.0255V13.0577C12.1322 12.9785 12.1999 12.8888 12.27 12.7903C12.6287 12.2837 12.9163 11.7201 13.1261 11.1137C13.5408 10.9167 13.8085 10.5037 13.8085 10.0373V8.87713C13.8085 8.59338 13.7044 8.31815 13.5182 8.10182V6.57444C13.5352 6.40458 13.5954 5.446 12.9019 4.65531C12.2988 3.96673 11.3225 3.61818 10 3.61818C8.67749 3.61818 7.70124 3.96673 7.09807 4.65498C6.40458 5.44567 6.4648 6.40425 6.48182 6.57411V8.10149C6.29593 8.31782 6.19153 8.59306 6.19153 8.8768V10.037C6.19153 10.3973 6.3532 10.7334 6.63007 10.9602C6.89516 11.9987 7.44073 12.7848 7.64233 13.0512V13.9983C7.64233 14.2653 7.49669 14.5108 7.26204 14.6391L4.67429 16.0506C4.59182 16.0955 4.51 16.1478 4.42818 16.2064C2.72669 14.6774 1.65455 12.4617 1.65455 10ZM14.8957 16.7523C14.7811 16.8354 14.6646 16.9159 14.5465 16.9928C14.4921 17.0282 14.4381 17.0635 14.3828 17.0979C14.2284 17.1935 14.0713 17.2844 13.9109 17.3695C13.8756 17.3882 13.8399 17.4059 13.8042 17.4242C13.4357 17.613 13.0544 17.7753 12.6627 17.9072C12.6489 17.9118 12.6352 17.9167 12.6211 17.9213C12.4159 17.9894 12.2081 18.0499 11.998 18.102L11.996 18.1023C11.784 18.1547 11.5693 18.1982 11.3533 18.2339C11.3474 18.2348 11.3415 18.2361 11.3356 18.2371C11.1324 18.2702 10.9275 18.2941 10.722 18.3121C10.6856 18.3153 10.6493 18.3176 10.6127 18.3203C10.4094 18.3356 10.2052 18.3455 10 18.3455C9.79251 18.3455 9.58567 18.3353 9.37982 18.3199C9.34415 18.3173 9.30847 18.315 9.27313 18.3117C9.06564 18.2934 8.85913 18.2689 8.65458 18.2355C8.64542 18.2339 8.63626 18.2322 8.62709 18.2306C8.19444 18.1583 7.76865 18.0519 7.354 17.9128C7.34124 17.9085 7.32815 17.904 7.31538 17.8997C7.10953 17.8297 6.90596 17.7521 6.706 17.6664C6.70469 17.6657 6.70305 17.6651 6.70175 17.6644C6.51258 17.5829 6.32702 17.4926 6.14375 17.3973C6.11985 17.3849 6.09564 17.3731 6.07207 17.3604C5.90484 17.271 5.7412 17.1745 5.57985 17.0737C5.53207 17.0436 5.48462 17.0131 5.43749 16.9824C5.28891 16.8852 5.14229 16.784 4.9996 16.677C4.98487 16.6659 4.9708 16.6541 4.95607 16.643C4.96655 16.6371 4.97702 16.6312 4.98749 16.6253L7.57524 15.2138C8.02033 14.9709 8.29687 14.5052 8.29687 13.9983L8.29655 12.8195L8.22127 12.7285C8.21407 12.7203 7.50651 11.8596 7.23913 10.6941L7.20935 10.5645L7.09775 10.4922C6.94033 10.3904 6.84607 10.2203 6.84607 10.0367V8.87647C6.84607 8.72429 6.91055 8.58258 7.02836 8.47622L7.13636 8.37869V6.55578L7.13342 6.51291C7.13244 6.50505 7.03589 5.71796 7.59029 5.086C8.06353 4.54665 8.87451 4.27273 10 4.27273C11.1212 4.27273 11.9296 4.54436 12.4041 5.07978C12.9579 5.7052 12.8672 6.50702 12.8666 6.51356L12.8636 8.37935L12.9716 8.47687C13.0891 8.58291 13.1539 8.72495 13.1539 8.87713V10.0373C13.1539 10.2707 12.9952 10.4824 12.7674 10.5528L12.6048 10.6028L12.5524 10.7648C12.3593 11.3647 12.0844 11.9188 11.7355 12.4117C11.6498 12.5328 11.5663 12.6401 11.4947 12.7223L11.4135 12.8149V14.0255C11.4135 14.553 11.7067 15.0276 12.1787 15.2632L14.9497 16.6485C14.9673 16.6574 14.9847 16.6665 15.002 16.6757C14.967 16.7022 14.931 16.7268 14.8957 16.7523Z"/>
</mask>
<path d="M19 10C19 5.03756 14.9624 1 10 1C5.03756 1 1 5.03756 1 10C1 12.6211 2.12713 14.9837 3.92124 16.6299L3.91273 16.6374L4.20465 16.8835C4.22364 16.8996 4.24425 16.9127 4.26324 16.9284C4.41836 17.057 4.57905 17.1791 4.74269 17.2972C4.79571 17.3355 4.84873 17.3738 4.90273 17.4111C5.07749 17.5315 5.25684 17.6457 5.44011 17.7541C5.48004 17.7776 5.52029 17.8005 5.56055 17.8235C5.76116 17.9377 5.96604 18.0453 6.17582 18.1442C6.1912 18.1514 6.20691 18.1579 6.22229 18.1651C6.90596 18.4829 7.63578 18.7163 8.39898 18.854C8.41895 18.8576 8.43891 18.8612 8.4592 18.8648C8.69615 18.9057 8.93571 18.9385 9.17822 18.9604C9.20767 18.963 9.23713 18.9647 9.26691 18.9673C9.50844 18.9872 9.75258 19 10 19C10.2451 19 10.487 18.9872 10.7272 18.9679C10.7576 18.9653 10.7881 18.9637 10.8185 18.9611C11.0591 18.9391 11.2967 18.9074 11.5313 18.8671C11.5516 18.8635 11.5722 18.8599 11.5925 18.856C12.3443 18.7212 13.0636 18.4931 13.7384 18.1835C13.7633 18.172 13.7885 18.1612 13.8134 18.1494C14.0153 18.0545 14.2127 17.9521 14.4061 17.8431C14.4542 17.8159 14.502 17.7884 14.5497 17.7603C14.7258 17.6565 14.8989 17.5482 15.0672 17.433C15.1277 17.3918 15.1869 17.3483 15.2468 17.3051C15.3905 17.2016 15.5316 17.0949 15.6687 16.9833C15.6991 16.9588 15.7319 16.9375 15.7616 16.9123L16.0611 16.6623L16.0523 16.6548C17.8621 15.0079 19 12.6345 19 10ZM1.65455 10C1.65455 5.39822 5.39822 1.65455 10 1.65455C14.6018 1.65455 18.3455 5.39822 18.3455 10C18.3455 12.4797 17.2573 14.7091 15.5345 16.2388C15.4383 16.1724 15.3414 16.1128 15.2423 16.0631L12.4712 14.6777C12.2225 14.5533 12.068 14.3033 12.068 14.0255V13.0577C12.1322 12.9785 12.1999 12.8888 12.27 12.7903C12.6287 12.2837 12.9163 11.7201 13.1261 11.1137C13.5408 10.9167 13.8085 10.5037 13.8085 10.0373V8.87713C13.8085 8.59338 13.7044 8.31815 13.5182 8.10182V6.57444C13.5352 6.40458 13.5954 5.446 12.9019 4.65531C12.2988 3.96673 11.3225 3.61818 10 3.61818C8.67749 3.61818 7.70124 3.96673 7.09807 4.65498C6.40458 5.44567 6.4648 6.40425 6.48182 6.57411V8.10149C6.29593 8.31782 6.19153 8.59306 6.19153 8.8768V10.037C6.19153 10.3973 6.3532 10.7334 6.63007 10.9602C6.89516 11.9987 7.44073 12.7848 7.64233 13.0512V13.9983C7.64233 14.2653 7.49669 14.5108 7.26204 14.6391L4.67429 16.0506C4.59182 16.0955 4.51 16.1478 4.42818 16.2064C2.72669 14.6774 1.65455 12.4617 1.65455 10ZM14.8957 16.7523C14.7811 16.8354 14.6646 16.9159 14.5465 16.9928C14.4921 17.0282 14.4381 17.0635 14.3828 17.0979C14.2284 17.1935 14.0713 17.2844 13.9109 17.3695C13.8756 17.3882 13.8399 17.4059 13.8042 17.4242C13.4357 17.613 13.0544 17.7753 12.6627 17.9072C12.6489 17.9118 12.6352 17.9167 12.6211 17.9213C12.4159 17.9894 12.2081 18.0499 11.998 18.102L11.996 18.1023C11.784 18.1547 11.5693 18.1982 11.3533 18.2339C11.3474 18.2348 11.3415 18.2361 11.3356 18.2371C11.1324 18.2702 10.9275 18.2941 10.722 18.3121C10.6856 18.3153 10.6493 18.3176 10.6127 18.3203C10.4094 18.3356 10.2052 18.3455 10 18.3455C9.79251 18.3455 9.58567 18.3353 9.37982 18.3199C9.34415 18.3173 9.30847 18.315 9.27313 18.3117C9.06564 18.2934 8.85913 18.2689 8.65458 18.2355C8.64542 18.2339 8.63626 18.2322 8.62709 18.2306C8.19444 18.1583 7.76865 18.0519 7.354 17.9128C7.34124 17.9085 7.32815 17.904 7.31538 17.8997C7.10953 17.8297 6.90596 17.7521 6.706 17.6664C6.70469 17.6657 6.70305 17.6651 6.70175 17.6644C6.51258 17.5829 6.32702 17.4926 6.14375 17.3973C6.11985 17.3849 6.09564 17.3731 6.07207 17.3604C5.90484 17.271 5.7412 17.1745 5.57985 17.0737C5.53207 17.0436 5.48462 17.0131 5.43749 16.9824C5.28891 16.8852 5.14229 16.784 4.9996 16.677C4.98487 16.6659 4.9708 16.6541 4.95607 16.643C4.96655 16.6371 4.97702 16.6312 4.98749 16.6253L7.57524 15.2138C8.02033 14.9709 8.29687 14.5052 8.29687 13.9983L8.29655 12.8195L8.22127 12.7285C8.21407 12.7203 7.50651 11.8596 7.23913 10.6941L7.20935 10.5645L7.09775 10.4922C6.94033 10.3904 6.84607 10.2203 6.84607 10.0367V8.87647C6.84607 8.72429 6.91055 8.58258 7.02836 8.47622L7.13636 8.37869V6.55578L7.13342 6.51291C7.13244 6.50505 7.03589 5.71796 7.59029 5.086C8.06353 4.54665 8.87451 4.27273 10 4.27273C11.1212 4.27273 11.9296 4.54436 12.4041 5.07978C12.9579 5.7052 12.8672 6.50702 12.8666 6.51356L12.8636 8.37935L12.9716 8.47687C13.0891 8.58291 13.1539 8.72495 13.1539 8.87713V10.0373C13.1539 10.2707 12.9952 10.4824 12.7674 10.5528L12.6048 10.6028L12.5524 10.7648C12.3593 11.3647 12.0844 11.9188 11.7355 12.4117C11.6498 12.5328 11.5663 12.6401 11.4947 12.7223L11.4135 12.8149V14.0255C11.4135 14.553 11.7067 15.0276 12.1787 15.2632L14.9497 16.6485C14.9673 16.6574 14.9847 16.6665 15.002 16.6757C14.967 16.7022 14.931 16.7268 14.8957 16.7523Z" fill="#161717"/>
<path d="M19 10C19 5.03756 14.9624 1 10 1C5.03756 1 1 5.03756 1 10C1 12.6211 2.12713 14.9837 3.92124 16.6299L3.91273 16.6374L4.20465 16.8835C4.22364 16.8996 4.24425 16.9127 4.26324 16.9284C4.41836 17.057 4.57905 17.1791 4.74269 17.2972C4.79571 17.3355 4.84873 17.3738 4.90273 17.4111C5.07749 17.5315 5.25684 17.6457 5.44011 17.7541C5.48004 17.7776 5.52029 17.8005 5.56055 17.8235C5.76116 17.9377 5.96604 18.0453 6.17582 18.1442C6.1912 18.1514 6.20691 18.1579 6.22229 18.1651C6.90596 18.4829 7.63578 18.7163 8.39898 18.854C8.41895 18.8576 8.43891 18.8612 8.4592 18.8648C8.69615 18.9057 8.93571 18.9385 9.17822 18.9604C9.20767 18.963 9.23713 18.9647 9.26691 18.9673C9.50844 18.9872 9.75258 19 10 19C10.2451 19 10.487 18.9872 10.7272 18.9679C10.7576 18.9653 10.7881 18.9637 10.8185 18.9611C11.0591 18.9391 11.2967 18.9074 11.5313 18.8671C11.5516 18.8635 11.5722 18.8599 11.5925 18.856C12.3443 18.7212 13.0636 18.4931 13.7384 18.1835C13.7633 18.172 13.7885 18.1612 13.8134 18.1494C14.0153 18.0545 14.2127 17.9521 14.4061 17.8431C14.4542 17.8159 14.502 17.7884 14.5497 17.7603C14.7258 17.6565 14.8989 17.5482 15.0672 17.433C15.1277 17.3918 15.1869 17.3483 15.2468 17.3051C15.3905 17.2016 15.5316 17.0949 15.6687 16.9833C15.6991 16.9588 15.7319 16.9375 15.7616 16.9123L16.0611 16.6623L16.0523 16.6548C17.8621 15.0079 19 12.6345 19 10ZM1.65455 10C1.65455 5.39822 5.39822 1.65455 10 1.65455C14.6018 1.65455 18.3455 5.39822 18.3455 10C18.3455 12.4797 17.2573 14.7091 15.5345 16.2388C15.4383 16.1724 15.3414 16.1128 15.2423 16.0631L12.4712 14.6777C12.2225 14.5533 12.068 14.3033 12.068 14.0255V13.0577C12.1322 12.9785 12.1999 12.8888 12.27 12.7903C12.6287 12.2837 12.9163 11.7201 13.1261 11.1137C13.5408 10.9167 13.8085 10.5037 13.8085 10.0373V8.87713C13.8085 8.59338 13.7044 8.31815 13.5182 8.10182V6.57444C13.5352 6.40458 13.5954 5.446 12.9019 4.65531C12.2988 3.96673 11.3225 3.61818 10 3.61818C8.67749 3.61818 7.70124 3.96673 7.09807 4.65498C6.40458 5.44567 6.4648 6.40425 6.48182 6.57411V8.10149C6.29593 8.31782 6.19153 8.59306 6.19153 8.8768V10.037C6.19153 10.3973 6.3532 10.7334 6.63007 10.9602C6.89516 11.9987 7.44073 12.7848 7.64233 13.0512V13.9983C7.64233 14.2653 7.49669 14.5108 7.26204 14.6391L4.67429 16.0506C4.59182 16.0955 4.51 16.1478 4.42818 16.2064C2.72669 14.6774 1.65455 12.4617 1.65455 10ZM14.8957 16.7523C14.7811 16.8354 14.6646 16.9159 14.5465 16.9928C14.4921 17.0282 14.4381 17.0635 14.3828 17.0979C14.2284 17.1935 14.0713 17.2844 13.9109 17.3695C13.8756 17.3882 13.8399 17.4059 13.8042 17.4242C13.4357 17.613 13.0544 17.7753 12.6627 17.9072C12.6489 17.9118 12.6352 17.9167 12.6211 17.9213C12.4159 17.9894 12.2081 18.0499 11.998 18.102L11.996 18.1023C11.784 18.1547 11.5693 18.1982 11.3533 18.2339C11.3474 18.2348 11.3415 18.2361 11.3356 18.2371C11.1324 18.2702 10.9275 18.2941 10.722 18.3121C10.6856 18.3153 10.6493 18.3176 10.6127 18.3203C10.4094 18.3356 10.2052 18.3455 10 18.3455C9.79251 18.3455 9.58567 18.3353 9.37982 18.3199C9.34415 18.3173 9.30847 18.315 9.27313 18.3117C9.06564 18.2934 8.85913 18.2689 8.65458 18.2355C8.64542 18.2339 8.63626 18.2322 8.62709 18.2306C8.19444 18.1583 7.76865 18.0519 7.354 17.9128C7.34124 17.9085 7.32815 17.904 7.31538 17.8997C7.10953 17.8297 6.90596 17.7521 6.706 17.6664C6.70469 17.6657 6.70305 17.6651 6.70175 17.6644C6.51258 17.5829 6.32702 17.4926 6.14375 17.3973C6.11985 17.3849 6.09564 17.3731 6.07207 17.3604C5.90484 17.271 5.7412 17.1745 5.57985 17.0737C5.53207 17.0436 5.48462 17.0131 5.43749 16.9824C5.28891 16.8852 5.14229 16.784 4.9996 16.677C4.98487 16.6659 4.9708 16.6541 4.95607 16.643C4.96655 16.6371 4.97702 16.6312 4.98749 16.6253L7.57524 15.2138C8.02033 14.9709 8.29687 14.5052 8.29687 13.9983L8.29655 12.8195L8.22127 12.7285C8.21407 12.7203 7.50651 11.8596 7.23913 10.6941L7.20935 10.5645L7.09775 10.4922C6.94033 10.3904 6.84607 10.2203 6.84607 10.0367V8.87647C6.84607 8.72429 6.91055 8.58258 7.02836 8.47622L7.13636 8.37869V6.55578L7.13342 6.51291C7.13244 6.50505 7.03589 5.71796 7.59029 5.086C8.06353 4.54665 8.87451 4.27273 10 4.27273C11.1212 4.27273 11.9296 4.54436 12.4041 5.07978C12.9579 5.7052 12.8672 6.50702 12.8666 6.51356L12.8636 8.37935L12.9716 8.47687C13.0891 8.58291 13.1539 8.72495 13.1539 8.87713V10.0373C13.1539 10.2707 12.9952 10.4824 12.7674 10.5528L12.6048 10.6028L12.5524 10.7648C12.3593 11.3647 12.0844 11.9188 11.7355 12.4117C11.6498 12.5328 11.5663 12.6401 11.4947 12.7223L11.4135 12.8149V14.0255C11.4135 14.553 11.7067 15.0276 12.1787 15.2632L14.9497 16.6485C14.9673 16.6574 14.9847 16.6665 15.002 16.6757C14.967 16.7022 14.931 16.7268 14.8957 16.7523Z" stroke="#161717" stroke-width="0.5" mask="url(#path-1-outside-1)"/>
</svg>
