<svg width="32" height="32" viewBox="0 0 32 32" fill="none" xmlns="http://www.w3.org/2000/svg">
<path d="M26.5682 4.00583L22.9372 4C18.8579 4 16.2217 6.70466 16.2217 10.8908V14.068H12.5709C12.2555 14.068 12 14.3237 12 14.6392V19.2425C12 19.558 12.2558 19.8134 12.5709 19.8134H16.2217V31.4291C16.2217 31.7445 16.4772 32 16.7927 32H21.5559C21.8714 32 22.1268 31.7442 22.1268 31.4291V19.8134H26.3954C26.7109 19.8134 26.9664 19.558 26.9664 19.2425L26.9681 14.6392C26.9681 14.4877 26.9078 14.3427 26.8009 14.2355C26.694 14.1283 26.5484 14.068 26.3969 14.068H22.1268V11.3747C22.1268 10.0802 22.4353 9.42301 24.1216 9.42301L26.5676 9.42214C26.8828 9.42214 27.1382 9.16638 27.1382 8.8512V4.57676C27.1382 4.26187 26.8831 4.00641 26.5682 4.00583Z" fill="#F3F3F3"/>
</svg>
