<svg width="24" height="24" viewBox="0 0 24 24" fill="none" xmlns="http://www.w3.org/2000/svg">
<path d="M23.0884 21.3481L23.1768 21.2598L23.0884 21.1714L16.6696 14.7526C17.7243 13.309 18.3551 11.5365 18.3551 9.61506C18.3551 4.79544 14.4347 0.875 9.61506 0.875C4.79544 0.875 0.875 4.79544 0.875 9.61506C0.875 14.4347 4.79544 18.3551 9.61506 18.3551C11.5365 18.3551 13.309 17.7243 14.7526 16.6696L21.1714 23.0884L21.2598 23.1768L21.3481 23.0884L23.0884 21.3481ZM15.6776 15.897L15.6779 15.8967L15.8064 15.5915L15.8963 15.6783C15.8963 15.6783 15.8963 15.6783 15.8963 15.6783C15.9199 15.6539 15.9443 15.6304 15.9703 15.6052C15.9753 15.6004 15.9803 15.5955 15.9854 15.5906C15.9869 15.5892 15.9883 15.5878 15.9897 15.5864L21.6631 21.2598L21.2594 21.6635L15.5863 15.9897C15.5877 15.9882 15.5891 15.9868 15.5905 15.9854C15.5946 15.9811 15.5986 15.9769 15.6027 15.9728C15.6286 15.9459 15.6526 15.921 15.6776 15.897ZM1.94548 9.61506C1.94548 5.386 5.386 1.94548 9.61506 1.94548C13.8441 1.94548 17.2846 5.386 17.2846 9.61506C17.2846 13.8441 13.8441 17.2846 9.61506 17.2846C5.386 17.2846 1.94548 13.8441 1.94548 9.61506Z" fill="#161717" stroke="#161717" stroke-width="0.25"/>
</svg>
