<svg width="29" height="40" viewBox="0 0 29 40" fill="none" xmlns="http://www.w3.org/2000/svg">
<path d="M23.9147 4.10322C21.2688 1.45735 17.7508 0 14.0091 0C10.2668 0 6.74942 1.45735 4.10355 4.10322C-0.792996 8.99903 -1.4015 18.2106 2.78572 23.7917L14.0091 40L25.2157 23.8143C29.4198 18.2106 28.8113 8.99903 23.9147 4.10322ZM14.1384 18.993C11.3194 18.993 9.02493 16.6985 9.02493 13.8795C9.02493 11.0605 11.3194 8.766 14.1384 8.766C16.9574 8.766 19.2519 11.0605 19.2519 13.8795C19.2519 16.6985 16.9574 18.993 14.1384 18.993Z" fill="url(#paint0_linear)"/>
<defs>
<linearGradient id="paint0_linear" x1="-3.17652e-05" y1="20" x2="28.0154" y2="20" gradientUnits="userSpaceOnUse">
<stop stop-color="#0094FF"/>
<stop offset="1" stop-color="#312783"/>
</linearGradient>
</defs>
</svg>
