<svg width="61" height="95" viewBox="0 0 61 95" fill="none" xmlns="http://www.w3.org/2000/svg">
<path d="M25.3216 6.33318H28.4867V9.49984H25.3216V6.33318Z" fill="url(#paint0_linear)"/>
<path d="M31.6515 6.33318H34.8166V9.49984H31.6515V6.33318Z" fill="url(#paint1_linear)"/>
<path d="M6.33028 95H53.8073C57.3034 95 60.1376 92.1645 60.1376 88.6667V6.33333C60.1376 2.83555 57.3034 0 53.8073 0H6.33028C2.83418 0 0 2.83555 0 6.33333V88.6667C0 92.1645 2.83418 95 6.33028 95ZM53.8073 91.8333H6.33028C4.58213 91.8333 3.16514 90.4157 3.16514 88.6667V82.3333H56.9725V88.6667C56.9725 90.4157 55.5555 91.8333 53.8073 91.8333ZM3.16514 79.1667V15.8333H56.9725V79.1667H3.16514ZM6.33028 3.16667H53.8073C55.5555 3.16667 56.9725 4.58434 56.9725 6.33333V12.6667H3.16514V6.33333C3.16514 4.58434 4.58213 3.16667 6.33028 3.16667Z" fill="url(#paint2_linear)"/>
<path d="M51.6535 24.114C51.2899 23.8143 50.8125 23.6908 50.3494 23.7767L25.1739 28.4998H17.4083C15.6601 28.4998 14.2431 29.9175 14.2431 31.6665V31.8248C9.96029 32.6948 7.19356 36.8737 8.06319 41.1586C8.69542 44.274 11.1292 46.7089 14.2431 47.3415V47.4998C14.2431 49.2488 15.6601 50.6665 17.4083 50.6665V66.4998C17.4083 69.1232 19.5338 71.2498 22.156 71.2498C24.7781 71.2498 26.9037 69.1232 26.9037 66.4998V56.9998H31.6514C32.5253 56.9998 33.2339 56.2909 33.2339 55.4165V52.1786L50.3494 55.3896C50.446 55.4072 50.5441 55.4161 50.6422 55.4165C51.5162 55.4165 52.2248 54.7075 52.2248 53.8331V25.3331C52.2252 24.8619 52.0157 24.415 51.6535 24.114ZM17.4083 31.6665H23.7385V47.4998H17.4083V31.6665ZM11.078 39.5831C11.0804 37.5707 12.3476 35.7774 14.2431 35.1039V44.0624C12.3476 43.3889 11.0804 41.5956 11.078 39.5831ZM23.7385 50.6665V60.1665H20.5734V50.6665H23.7385ZM22.156 68.0831C21.282 68.0831 20.5734 67.3742 20.5734 66.4998V63.3331H23.7385V66.4998C23.7385 67.3742 23.0299 68.0831 22.156 68.0831ZM30.0688 53.8331H26.9037V50.9831L30.0688 51.5769V53.8331ZM49.0596 51.9331L26.9037 47.769V31.3973L49.0596 27.2331V51.9331Z" fill="url(#paint3_linear)"/>
<path d="M28.487 85.5H31.6521V88.6667H28.487V85.5Z" fill="url(#paint4_linear)"/>
<defs>
<linearGradient id="paint0_linear" x1="25.3216" y1="7.91651" x2="28.4867" y2="7.91651" gradientUnits="userSpaceOnUse">
<stop stop-color="#0094FF"/>
<stop offset="1" stop-color="#312783"/>
</linearGradient>
<linearGradient id="paint1_linear" x1="31.6515" y1="7.91651" x2="34.8166" y2="7.91651" gradientUnits="userSpaceOnUse">
<stop stop-color="#0094FF"/>
<stop offset="1" stop-color="#312783"/>
</linearGradient>
<linearGradient id="paint2_linear" x1="-6.81869e-05" y1="47.5" x2="60.1375" y2="47.5" gradientUnits="userSpaceOnUse">
<stop stop-color="#0094FF"/>
<stop offset="1" stop-color="#312783"/>
</linearGradient>
<linearGradient id="paint3_linear" x1="7.90333" y1="47.4999" x2="52.2247" y2="47.4999" gradientUnits="userSpaceOnUse">
<stop stop-color="#0094FF"/>
<stop offset="1" stop-color="#312783"/>
</linearGradient>
<linearGradient id="paint4_linear" x1="28.487" y1="87.0833" x2="31.6521" y2="87.0833" gradientUnits="userSpaceOnUse">
<stop stop-color="#0094FF"/>
<stop offset="1" stop-color="#312783"/>
</linearGradient>
</defs>
</svg>
