<svg width="32" height="32" viewBox="0 0 32 32" fill="none" xmlns="http://www.w3.org/2000/svg">
<path d="M15.0242 19.9048C13.1637 19.7108 11.4862 19.2525 10.0499 18.1292C9.87171 17.9895 9.68772 17.8548 9.52509 17.6987C8.89645 17.0949 8.83311 16.4034 9.33054 15.6908C9.75608 15.081 10.4704 14.9179 11.2129 15.2681C11.3567 15.3359 11.4937 15.4206 11.6249 15.5116C14.3016 17.3508 17.9787 17.4016 20.6654 15.5943C20.9316 15.3902 21.2161 15.2238 21.5459 15.1389C22.1871 14.9742 22.7851 15.2097 23.1292 15.7708C23.5223 16.4115 23.5173 17.0368 23.0329 17.5343C22.2899 18.2969 21.3963 18.8486 20.4035 19.2337C19.4647 19.5976 18.4364 19.7809 17.4186 19.9025C17.5722 20.0697 17.6446 20.1519 17.7406 20.2484C19.1226 21.6369 20.5106 23.0196 21.888 24.4124C22.3573 24.8869 22.4553 25.4753 22.1969 26.0273C21.9144 26.6306 21.282 27.0275 20.6619 26.985C20.269 26.9578 19.9626 26.7623 19.6904 26.488C18.6475 25.4386 17.585 24.4086 16.5633 23.3393C16.2659 23.0284 16.1229 23.0872 15.8605 23.3572C14.8113 24.4372 13.7451 25.5007 12.6726 26.5582C12.191 27.033 11.6179 27.1184 11.0594 26.8472C10.4657 26.5594 10.0879 25.9534 10.117 25.3444C10.1371 24.9324 10.3397 24.6177 10.6225 24.3354C11.9901 22.9698 13.354 21.6007 14.7183 20.2328C14.8086 20.1418 14.8928 20.0453 15.0242 19.9048Z" fill="#F3F3F3"/>
<path d="M16.0216 15.1478C12.7025 15.1364 9.98079 12.3849 10.0001 9.06044C10.0193 5.69933 12.7427 2.99072 16.0945 3.00002C19.4531 3.00907 22.1489 5.75663 22.132 9.15269C22.115 12.4703 19.3744 15.1593 16.0216 15.1478ZM19.0381 9.06849C19.0323 7.41784 17.7178 6.10376 16.0704 6.10225C14.4092 6.10049 13.0828 7.43845 13.0956 9.10418C13.1079 10.7485 14.4338 12.0533 16.0857 12.0473C17.7326 12.0415 19.0436 10.7189 19.0381 9.06849Z" fill="#F3F3F3"/>
</svg>
