<svg width="20" height="20" viewBox="0 0 20 20" fill="none" xmlns="http://www.w3.org/2000/svg">
<path d="M10 0.875C4.96816 0.875 0.875 4.96816 0.875 10C0.875 15.0318 4.96816 19.125 10 19.125C15.0318 19.125 19.125 15.0318 19.125 10C19.125 4.96816 15.0318 0.875 10 0.875ZM10 18.1827C5.48838 18.1827 1.81731 14.5116 1.81731 10C1.81731 5.48838 5.48838 1.81731 10 1.81731C14.5116 1.81731 18.1827 5.48838 18.1827 10C18.1827 14.5116 14.5116 18.1827 10 18.1827Z" fill="#161717" stroke="#161717" stroke-width="0.25"/>
<path d="M9.99999 13.6827C9.73953 13.6827 9.52884 13.8934 9.52884 14.1538V14.8461C9.52884 15.1066 9.73953 15.3173 9.99999 15.3173C10.2605 15.3173 10.4711 15.1066 10.4711 14.8461V14.1538C10.4711 13.8934 10.2605 13.6827 9.99999 13.6827Z" fill="#161717" stroke="#161717" stroke-width="0.25"/>
<path d="M10.0409 3.9907L10.0409 3.99071C11.5928 4.01243 12.8722 5.29174 12.8939 6.84337C12.908 7.84774 12.4118 8.77319 11.5673 9.31784C10.8946 9.75206 10.4712 10.5632 10.4712 11.4393V12.423C10.4712 12.6835 10.2605 12.8942 10 12.8942C9.73955 12.8942 9.52885 12.6835 9.52885 12.423V11.4393C9.52885 10.2355 10.0975 9.14493 11.0566 8.52624L11.0566 8.52623C11.6268 8.15843 11.961 7.53486 11.9516 6.85656C11.9373 5.83004 11.0546 4.94729 10.028 4.933L10.0268 4.93298C9.50416 4.92065 9.00524 5.12423 8.62943 5.49482C8.25448 5.86456 8.04808 6.35796 8.04808 6.88459C8.04808 7.14505 7.83739 7.35574 7.57693 7.35574C7.31647 7.35574 7.10577 7.14505 7.10577 6.88459C7.10577 6.10412 7.41239 5.37181 7.96786 4.82392L10.0409 3.9907ZM10.0409 3.9907H10.0391M10.0409 3.9907H10.0391M10.0391 3.9907L10.021 3.99054M10.0391 3.9907L10.021 3.99054M10.021 3.99054L9.99931 3.99036M10.021 3.99054L9.99931 3.99036M9.99931 3.99036C9.23403 3.99036 8.51364 4.28539 7.96788 4.8239L9.99931 3.99036Z" fill="#161717" stroke="#161717" stroke-width="0.25"/>
</svg>
