<svg width="32" height="32" viewBox="0 0 32 32" fill="none" xmlns="http://www.w3.org/2000/svg">
<path d="M27.6216 9.248C26.7522 9.62948 25.8193 9.88819 24.8392 10.0037C25.84 9.41024 26.6061 8.46896 26.9692 7.35079C26.0304 7.90035 24.9942 8.29941 23.8901 8.51574C23.0059 7.58175 21.7483 7 20.3534 7C17.6772 7 15.5074 9.14863 15.5074 11.7971C15.5074 12.1728 15.5502 12.5396 15.6329 12.8905C11.6062 12.6902 8.03556 10.7798 5.6458 7.87696C5.22806 8.58442 4.99041 9.40875 4.99041 10.2887C4.99041 11.9535 5.84654 13.4225 7.1455 14.2819C6.35136 14.2556 5.60446 14.0393 4.95058 13.6797V13.7396C4.95058 16.0637 6.6215 18.0033 8.83707 18.4447C8.43114 18.5529 8.0031 18.6128 7.56027 18.6128C7.24736 18.6128 6.94476 18.5821 6.64806 18.5236C7.26504 20.4311 9.05407 21.8182 11.1737 21.8562C9.51608 23.1425 7.42595 23.9069 5.15576 23.9069C4.76462 23.9069 4.37934 23.8835 4 23.8411C6.14475 25.2049 8.69098 26 11.4276 26C20.3416 26 25.2142 18.6888 25.2142 12.3482L25.1979 11.727C26.15 11.0546 26.9736 10.2098 27.6216 9.248Z" fill="#F3F3F3"/>
</svg>
