<svg width="32" height="32" viewBox="0 0 32 32" fill="none" xmlns="http://www.w3.org/2000/svg">

<path d="M26.1219 22.9409C25.9937 22.9571 25.8647 22.977 25.7357 22.9778C24.4708 22.9801 23.206 22.977 21.9419 22.9816C21.766 22.9824 21.6171 22.9171 21.4865 22.8119C21.2223 22.5961 20.9505 22.3834 20.707 22.1438C20.0742 21.5164 19.4575 20.8713 18.8293 20.2377C18.6335 20.0403 18.4246 19.8583 18.2188 19.6717C18.1121 19.5711 17.9784 19.5496 17.8402 19.5519C17.6551 19.5565 17.5023 19.6402 17.4293 19.8115C17.3625 19.9666 17.3072 20.1348 17.2896 20.3007C17.2588 20.601 17.2573 20.9028 17.2512 21.203C17.2443 21.5394 17.2343 21.8781 17.1398 22.2052C17.0976 22.3496 17.0377 22.4963 16.9632 22.6268C16.8326 22.8511 16.6268 22.9732 16.3649 22.9786C15.2606 23.0039 14.1555 23.02 13.0527 22.9479C12.8484 22.9325 12.6603 22.868 12.4783 22.7781C11.4492 22.2728 10.5453 21.6016 9.75965 20.7645C8.80353 19.747 7.93573 18.6557 7.06792 17.5644C5.89985 16.093 4.88997 14.5187 3.98223 12.8767C3.65047 12.2785 3.33023 11.6718 3.09216 11.0275C2.97466 10.7095 2.97466 10.3908 3.06298 10.0706C3.08832 9.97536 3.13363 9.88244 3.18585 9.79873C3.26035 9.67586 3.37631 9.60751 3.52453 9.60444C3.57675 9.60367 3.63127 9.60213 3.6835 9.60213C4.83084 9.60213 5.97664 9.60674 7.12322 9.59829C7.34977 9.59676 7.52333 9.67278 7.67539 9.82638C7.958 10.109 8.17764 10.4384 8.375 10.781C8.59004 11.1542 8.80507 11.5297 8.99475 11.9168C9.41176 12.7685 9.92323 13.5625 10.4646 14.3366C10.7288 14.7137 11.0145 15.0762 11.2887 15.4456C11.4162 15.6176 11.5928 15.6829 11.7963 15.6883C11.9944 15.6952 12.0751 15.6145 12.0827 15.4164C12.0851 15.3688 12.0843 15.3219 12.0843 15.2743C12.0843 13.9795 12.0843 12.6863 12.0827 11.3923C12.0827 11.2917 12.0827 11.1903 12.0728 11.0905C12.0497 10.8593 11.9276 10.7241 11.6988 10.6796C11.5951 10.6596 11.4891 10.6504 11.3839 10.6366C11.0614 10.5943 10.9277 10.4576 10.8939 10.1336C10.844 9.64437 11.0782 9.26269 11.5367 9.09143C11.7341 9.01771 11.9384 9.00158 12.1473 9.00235C13.1694 9.00389 14.1916 9.00235 15.2137 9.00312C15.4211 9.00312 15.6284 8.99237 15.8343 9.0108C16.0501 9.03153 16.2682 9.05995 16.4778 9.12138C16.9248 9.2504 17.1836 9.55452 17.2343 10.023C17.2473 10.1351 17.2504 10.2472 17.2504 10.3593C17.2519 11.145 17.2519 11.9306 17.2519 12.7162C17.2519 13.5495 17.2512 14.3827 17.2535 15.216C17.2535 15.2974 17.2604 15.3826 17.2827 15.4602C17.3556 15.7128 17.6305 15.7966 17.8617 15.6376C18.5429 15.1684 18.9898 14.5148 19.3339 13.7876C19.6518 13.1156 19.926 12.4229 20.2247 11.7417C20.4636 11.2018 20.7086 10.665 20.9581 10.1297C21.0188 9.99687 21.1087 9.8763 21.1924 9.75496C21.2684 9.64591 21.3682 9.59829 21.5088 9.59829C22.9933 9.6029 24.4747 9.60213 25.9584 9.6006C26.3216 9.6006 26.6096 9.74805 26.8362 10.0237C26.916 10.122 26.949 10.2372 26.9698 10.364C27.0581 10.9484 26.8577 11.4575 26.5781 11.9483C26.3132 12.4121 25.9983 12.8399 25.6558 13.2461C24.9462 14.0863 24.2504 14.9364 23.6422 15.8541C23.4855 16.0899 23.3519 16.341 23.209 16.5845C23.1038 16.7627 23.1177 16.9339 23.2498 17.0929C23.5178 17.4154 23.7773 17.7472 24.0592 18.0551C24.7289 18.7893 25.4154 19.5058 26.0889 20.2362C26.3047 20.4712 26.4998 20.7231 26.7002 20.9719C26.7663 21.0541 26.8154 21.15 26.8799 21.2338C27.3829 21.8835 26.7563 22.8572 26.1219 22.9409Z" fill="#F3F3F3"/>
</svg>
