<svg width="83" height="95" viewBox="0 0 83 95" fill="none" xmlns="http://www.w3.org/2000/svg">
<path d="M38.2255 3.16637H41.4109V12.6664H38.2255V3.16637Z" fill="url(#paint0_linear)"/>
<path d="M82.8207 60.1666C82.8207 57.5432 80.6815 55.4166 78.0425 55.4166V39.5832C78.0425 38.7088 77.3294 37.9999 76.4498 37.9999H70.079V30.0832C70.079 29.2088 69.3659 28.4999 68.4863 28.4999H58.6593C57.6336 22.2845 53.5517 16.9896 47.7811 14.3892V9.49986H44.5957V15.4374C44.5953 16.0897 44.9975 16.6755 45.6087 16.913C53.795 20.0811 57.848 29.2468 54.661 37.385C54.58 37.5916 54.4948 37.7967 54.4052 37.9999H43.4808C45.1231 36.1367 44.935 33.3027 43.0608 31.6701C42.7655 31.4128 42.4376 31.1951 42.0856 31.0221L38.9815 29.4784C38.3093 29.1447 38.0368 28.3327 38.3724 27.6645C38.602 27.2075 39.0712 26.9181 39.5851 26.9166H40.0502C40.8009 26.9174 41.4095 27.5224 41.4103 28.2687V28.4999H44.5957V28.2687C44.5884 26.3014 43.2995 24.5657 41.4103 23.9795V22.1666H38.2249V23.9795C35.8361 24.7181 34.502 27.2419 35.245 29.6167C35.6121 30.7902 36.4459 31.7635 37.5528 32.311L40.657 33.8547C41.3291 34.1884 41.6016 35.0005 41.266 35.6686C41.0358 36.1266 40.5652 36.4162 40.0502 36.4166H39.5851C38.8343 36.4158 38.2257 35.8108 38.2249 35.0644V34.8332H35.0395V35.0644C35.0433 36.1444 35.4391 37.1869 36.1544 37.9999H25.23C24.3437 36.0049 23.8874 33.8474 23.8906 31.6666C23.9023 25.4805 27.5247 19.8636 33.1745 17.2709C33.4548 17.1442 33.7393 17.0245 34.0281 16.9115C34.6381 16.6738 35.0395 16.0887 35.0395 15.4374V6.33319H31.8541V14.3908H31.8445C26.107 17.0272 22.0448 22.3051 20.9855 28.4999H6.37082C2.85234 28.4999 0 31.3355 0 34.8332V88.6667C0 92.1644 2.85234 95 6.37082 95H76.4498C77.3294 95 78.0425 94.2911 78.0425 93.4167V77.5833C80.6815 77.5833 82.8207 75.4567 82.8207 72.8333V60.1666ZM58.9301 31.6666H66.8936V37.9999H57.8152C58.551 35.9683 58.9281 33.8258 58.9301 31.6666ZM6.37082 31.6666H20.7052C20.7072 33.8258 21.0842 35.9683 21.8201 37.9999H6.37082C4.61148 37.9999 3.18541 36.5822 3.18541 34.8332C3.18541 33.0842 4.61148 31.6666 6.37082 31.6666ZM3.18541 88.6667V40.2862C4.14959 40.8561 5.24916 41.1601 6.37082 41.1666V91.8333C4.61148 91.8333 3.18541 90.4157 3.18541 88.6667ZM74.8571 91.8333H9.55623V41.1666H74.8571V55.4166H54.152C47.9946 55.4166 43.003 60.3788 43.003 66.5C43.003 72.6211 47.9946 77.5833 54.152 77.5833H74.8571V91.8333ZM79.6352 72.8333C79.6352 73.7077 78.9221 74.4166 78.0425 74.4166H54.152C49.7539 74.4166 46.1884 70.8721 46.1884 66.5C46.1884 62.1278 49.7539 58.5833 54.152 58.5833H78.0425C78.9221 58.5833 79.6352 59.2922 79.6352 60.1666V72.8333Z" fill="url(#paint1_linear)"/>
<path d="M54.1522 61.7501C51.5133 61.7501 49.3741 63.8767 49.3741 66.5001C49.3741 69.1235 51.5133 71.2501 54.1522 71.2501C56.7911 71.2501 58.9303 69.1235 58.9303 66.5001C58.9303 63.8767 56.7911 61.7501 54.1522 61.7501ZM54.1522 68.0835C53.2727 68.0835 52.5595 67.3745 52.5595 66.5001C52.5595 65.6257 53.2727 64.9168 54.1522 64.9168C55.0318 64.9168 55.7449 65.6257 55.7449 66.5001C55.7449 67.3745 55.0318 68.0835 54.1522 68.0835Z" fill="url(#paint2_linear)"/>
<path d="M44.5953 3.16637H47.7807V6.33304H44.5953V3.16637Z" fill="url(#paint3_linear)"/>
<path d="M31.8538 0H35.0392V3.16667H31.8538V0Z" fill="url(#paint4_linear)"/>
<path d="M47.7812 30.0832H50.9666V33.2499H47.7812V30.0832Z" fill="url(#paint5_linear)"/>
<path d="M28.6689 30.0832H31.8543V33.2499H28.6689V30.0832Z" fill="url(#paint6_linear)"/>
<defs>
<linearGradient id="paint0_linear" x1="38.2255" y1="7.91638" x2="41.4109" y2="7.91638" gradientUnits="userSpaceOnUse">
<stop stop-color="#0094FF"/>
<stop offset="1" stop-color="#312783"/>
</linearGradient>
<linearGradient id="paint1_linear" x1="-9.3906e-05" y1="50.6666" x2="82.8205" y2="50.6666" gradientUnits="userSpaceOnUse">
<stop stop-color="#0094FF"/>
<stop offset="1" stop-color="#312783"/>
</linearGradient>
<linearGradient id="paint2_linear" x1="49.3741" y1="66.5001" x2="58.9303" y2="66.5001" gradientUnits="userSpaceOnUse">
<stop stop-color="#0094FF"/>
<stop offset="1" stop-color="#312783"/>
</linearGradient>
<linearGradient id="paint3_linear" x1="44.5953" y1="4.7497" x2="47.7807" y2="4.7497" gradientUnits="userSpaceOnUse">
<stop stop-color="#0094FF"/>
<stop offset="1" stop-color="#312783"/>
</linearGradient>
<linearGradient id="paint4_linear" x1="31.8538" y1="1.58334" x2="35.0392" y2="1.58334" gradientUnits="userSpaceOnUse">
<stop stop-color="#0094FF"/>
<stop offset="1" stop-color="#312783"/>
</linearGradient>
<linearGradient id="paint5_linear" x1="47.7812" y1="31.6666" x2="50.9666" y2="31.6666" gradientUnits="userSpaceOnUse">
<stop stop-color="#0094FF"/>
<stop offset="1" stop-color="#312783"/>
</linearGradient>
<linearGradient id="paint6_linear" x1="28.6689" y1="31.6666" x2="31.8543" y2="31.6666" gradientUnits="userSpaceOnUse">
<stop stop-color="#0094FF"/>
<stop offset="1" stop-color="#312783"/>
</linearGradient>
</defs>
</svg>
	